M48
; DRILL file {KiCad 7.0.10} date Thu Jan 30 22:16:51 2025
; FORMAT={-:-/ absolute / inch / decimal}
; #@! TF.CreationDate,2025-01-30T22:16:51+01:00
; #@! TF.GenerationSoftware,Kicad,Pcbnew,7.0.10
; #@! TF.FileFunction,Plated,1,2,PTH
FMAT,2
INCH
; #@! TA.AperFunction,Plated,PTH,ViaDrill
T1C0.0157
; #@! TA.AperFunction,Plated,PTH,ComponentDrill
T2C0.0236
; #@! TA.AperFunction,Plated,PTH,ComponentDrill
T3C0.0315
; #@! TA.AperFunction,Plated,PTH,ComponentDrill
T4C0.0354
; #@! TA.AperFunction,Plated,PTH,ComponentDrill
T5C0.0374
; #@! TA.AperFunction,Plated,PTH,ComponentDrill
T6C0.0394
; #@! TA.AperFunction,Plated,PTH,ComponentDrill
T7C0.0433
%
G90
G05
T1
X5.15Y-3.46
X5.17Y-3.28
X5.29Y-3.83
X5.3001Y-3.6045
X5.34Y-3.705
X5.3477Y-3.6377
X5.3573Y-3.5473
X5.38Y-3.89
X5.44Y-3.34
X5.47Y-3.37
X5.59Y-3.405
X5.62Y-3.49
X5.74Y-3.73
X5.76Y-3.47
X5.87Y-3.57
X6.14Y-3.6551
X6.15Y-3.58
X6.1622Y-3.4335
X6.19Y-3.405
X6.38Y-3.62
T2
X4.5309Y-3.88
X4.59Y-3.88
X5.6309Y-3.18
X5.69Y-3.18
T3
X4.923Y-3.4746
X4.923Y-3.6714
T4
X6.49Y-2.8961
X6.49Y-3.03
X6.49Y-3.1713
X6.49Y-3.3051
X6.49Y-3.45
X6.49Y-3.5839
X6.49Y-3.73
X6.49Y-3.8639
X6.49Y-4.3881
X6.49Y-4.5219
T5
X4.9231Y-2.89
X4.9247Y-3.09
X5.0216Y-2.89
X5.0231Y-3.09
X5.12Y-2.89
X5.1216Y-3.09
X5.2184Y-2.89
X5.22Y-3.09
X5.43Y-2.84
X5.43Y-2.94
X5.43Y-3.04
X5.43Y-3.14
X5.43Y-3.24
X5.7931Y-2.805
X5.8916Y-2.805
X5.99Y-2.805
T6
X4.54Y-4.08
X4.54Y-4.78
X5.8916Y-3.13
X5.99Y-3.13
X6.14Y-4.08
X6.14Y-4.78
T7
X4.4641Y-2.99
X4.4641Y-3.1672
X4.72Y-2.99
X4.72Y-3.1672
M30
