%TF.GenerationSoftware,KiCad,Pcbnew,7.0.10*%
%TF.CreationDate,2025-01-30T22:16:48+01:00*%
%TF.ProjectId,bike_computer,62696b65-5f63-46f6-9d70-757465722e6b,rev?*%
%TF.SameCoordinates,Original*%
%TF.FileFunction,Paste,Top*%
%TF.FilePolarity,Positive*%
%FSLAX46Y46*%
G04 Gerber Fmt 4.6, Leading zero omitted, Abs format (unit mm)*
G04 Created by KiCad (PCBNEW 7.0.10) date 2025-01-30 22:16:48*
%MOMM*%
%LPD*%
G01*
G04 APERTURE LIST*
G04 Aperture macros list*
%AMRoundRect*
0 Rectangle with rounded corners*
0 $1 Rounding radius*
0 $2 $3 $4 $5 $6 $7 $8 $9 X,Y pos of 4 corners*
0 Add a 4 corners polygon primitive as box body*
4,1,4,$2,$3,$4,$5,$6,$7,$8,$9,$2,$3,0*
0 Add four circle primitives for the rounded corners*
1,1,$1+$1,$2,$3*
1,1,$1+$1,$4,$5*
1,1,$1+$1,$6,$7*
1,1,$1+$1,$8,$9*
0 Add four rect primitives between the rounded corners*
20,1,$1+$1,$2,$3,$4,$5,0*
20,1,$1+$1,$4,$5,$6,$7,0*
20,1,$1+$1,$6,$7,$8,$9,0*
20,1,$1+$1,$8,$9,$2,$3,0*%
G04 Aperture macros list end*
%ADD10RoundRect,0.225000X-0.250000X0.225000X-0.250000X-0.225000X0.250000X-0.225000X0.250000X0.225000X0*%
%ADD11RoundRect,0.225000X-0.225000X-0.250000X0.225000X-0.250000X0.225000X0.250000X-0.225000X0.250000X0*%
%ADD12RoundRect,0.200000X-0.200000X-0.275000X0.200000X-0.275000X0.200000X0.275000X-0.200000X0.275000X0*%
%ADD13R,2.000000X1.500000*%
%ADD14R,2.000000X3.800000*%
%ADD15RoundRect,0.075000X-0.415425X-0.521491X0.521491X0.415425X0.415425X0.521491X-0.521491X-0.415425X0*%
%ADD16RoundRect,0.075000X0.415425X-0.521491X0.521491X-0.415425X-0.415425X0.521491X-0.521491X0.415425X0*%
%ADD17RoundRect,0.200000X-0.275000X0.200000X-0.275000X-0.200000X0.275000X-0.200000X0.275000X0.200000X0*%
%ADD18RoundRect,0.225000X0.335876X0.017678X0.017678X0.335876X-0.335876X-0.017678X-0.017678X-0.335876X0*%
%ADD19RoundRect,0.200000X0.200000X0.275000X-0.200000X0.275000X-0.200000X-0.275000X0.200000X-0.275000X0*%
%ADD20RoundRect,0.225000X0.017678X-0.335876X0.335876X-0.017678X-0.017678X0.335876X-0.335876X0.017678X0*%
%ADD21RoundRect,0.150000X0.587500X0.150000X-0.587500X0.150000X-0.587500X-0.150000X0.587500X-0.150000X0*%
%ADD22RoundRect,0.225000X0.225000X0.250000X-0.225000X0.250000X-0.225000X-0.250000X0.225000X-0.250000X0*%
%ADD23RoundRect,0.225000X0.250000X-0.225000X0.250000X0.225000X-0.250000X0.225000X-0.250000X-0.225000X0*%
G04 APERTURE END LIST*
D10*
%TO.C,C10*%
X159766000Y-94602000D03*
X159766000Y-96152000D03*
%TD*%
D11*
%TO.C,C2*%
X142976000Y-85852000D03*
X144526000Y-85852000D03*
%TD*%
%TO.C,C8*%
X119126000Y-92172000D03*
X120676000Y-92172000D03*
%TD*%
D12*
%TO.C,R2*%
X143256000Y-99822000D03*
X144906000Y-99822000D03*
%TD*%
%TO.C,R5*%
X158116000Y-87122000D03*
X159766000Y-87122000D03*
%TD*%
D13*
%TO.C,U2*%
X151181200Y-93079600D03*
X151181200Y-90779600D03*
D14*
X144881200Y-90779600D03*
D13*
X151181200Y-88479600D03*
%TD*%
D15*
%TO.C,U1*%
X131139355Y-91799693D03*
X131492909Y-92153247D03*
X131846462Y-92506800D03*
X132200016Y-92860354D03*
X132553569Y-93213907D03*
X132907122Y-93567460D03*
X133260676Y-93921014D03*
X133614229Y-94274567D03*
X133967782Y-94628120D03*
X134321336Y-94981674D03*
X134674889Y-95335227D03*
X135028443Y-95688781D03*
D16*
X137026019Y-95688781D03*
X137379573Y-95335227D03*
X137733126Y-94981674D03*
X138086680Y-94628120D03*
X138440233Y-94274567D03*
X138793786Y-93921014D03*
X139147340Y-93567460D03*
X139500893Y-93213907D03*
X139854446Y-92860354D03*
X140208000Y-92506800D03*
X140561553Y-92153247D03*
X140915107Y-91799693D03*
D15*
X140915107Y-89802117D03*
X140561553Y-89448563D03*
X140208000Y-89095010D03*
X139854446Y-88741456D03*
X139500893Y-88387903D03*
X139147340Y-88034350D03*
X138793786Y-87680796D03*
X138440233Y-87327243D03*
X138086680Y-86973690D03*
X137733126Y-86620136D03*
X137379573Y-86266583D03*
X137026019Y-85913029D03*
D16*
X135028443Y-85913029D03*
X134674889Y-86266583D03*
X134321336Y-86620136D03*
X133967782Y-86973690D03*
X133614229Y-87327243D03*
X133260676Y-87680796D03*
X132907122Y-88034350D03*
X132553569Y-88387903D03*
X132200016Y-88741456D03*
X131846462Y-89095010D03*
X131492909Y-89448563D03*
X131139355Y-89802117D03*
%TD*%
D17*
%TO.C,R4*%
X124079000Y-82042000D03*
X124079000Y-83692000D03*
%TD*%
D18*
%TO.C,C5*%
X131137992Y-97917000D03*
X130041976Y-96820984D03*
%TD*%
D19*
%TO.C,R6*%
X159766000Y-92837000D03*
X158116000Y-92837000D03*
%TD*%
D20*
%TO.C,C6*%
X140889984Y-95838016D03*
X141986000Y-94742000D03*
%TD*%
D12*
%TO.C,R1*%
X139446000Y-99822000D03*
X141096000Y-99822000D03*
%TD*%
D11*
%TO.C,C7*%
X119126000Y-89662000D03*
X120676000Y-89662000D03*
%TD*%
D21*
%TO.C,Q2*%
X159736000Y-82992000D03*
X159736000Y-81092000D03*
X157861000Y-82042000D03*
%TD*%
D19*
%TO.C,R3*%
X120776000Y-86487000D03*
X119126000Y-86487000D03*
%TD*%
D21*
%TO.C,Q3*%
X159736000Y-74737000D03*
X159736000Y-72837000D03*
X157861000Y-73787000D03*
%TD*%
%TO.C,Q1*%
X159766000Y-90932000D03*
X159766000Y-89032000D03*
X157891000Y-89982000D03*
%TD*%
D19*
%TO.C,R9*%
X148081000Y-76327000D03*
X146431000Y-76327000D03*
%TD*%
D22*
%TO.C,C1*%
X148616000Y-85852000D03*
X147066000Y-85852000D03*
%TD*%
D18*
%TO.C,C4*%
X132461000Y-96647000D03*
X131364984Y-95550984D03*
%TD*%
D12*
%TO.C,R8*%
X158116000Y-71247000D03*
X159766000Y-71247000D03*
%TD*%
D23*
%TO.C,C9*%
X122174000Y-83592000D03*
X122174000Y-82042000D03*
%TD*%
D12*
%TO.C,R7*%
X158116000Y-79502000D03*
X159766000Y-79502000D03*
%TD*%
M02*
