  0
SECTION
  2
HEADER
  9
$ANGBASE
  50
0.0
  9
$ANGDIR
  70
1
  9
$MEASUREMENT
  70
1
  0
ENDSEC
  0
SECTION
  2
TABLES
  0
TABLE
  2
LTYPE
  70
4
  0
LTYPE
  5
40F
  2
CONTINUOUS
  70
0
  3
Solid line
  72
65
  73
0
  40
0.0
  0
LTYPE
  5
410
  2
DASHDOT
 70
0
  3
Dash Dot ____ _ ____ _
 72
65
 73
4
 40
2.0
 49
1.25
 49
-0.25
 49
0.25
 49
-0.25
  0
LTYPE
  5
411
  2
DASHED
 70
0
  3
Dashed __ __ __ __ __
 72
65
 73
2
 40
0.75
 49
0.5
 49
-0.25
  0
LTYPE
  5
43B
  2
DOTTED
 70
0
  3
Dotted .  .  .  .
 72
65
 73
2
 40
0.2
 49
0.0
 49
-0.2
  0
ENDTAB
  0
TABLE
  2
STYLE
  70
4
  0
STYLE
  2
KICAD
  70
0
  40
0
  41
1
  42
1
  50
0
  71
0
  3
isocp.shx
  0
STYLE
  2
KICADB
  70
0
  40
0
  41
1
  42
1
  50
0
  71
0
  3
isocp.shx
  0
STYLE
  2
KICADI
  70
0
  40
0
  41
1
  42
1
  50
15
  71
0
  3
isocp.shx
  0
STYLE
  2
KICADBI
  70
0
  40
0
  41
1
  42
1
  50
15
  71
0
  3
isocp.shx
  0
ENDTAB
  0
TABLE
  2
LAYER
  70
1
  0
LAYER
  2
BLACK
  70
0
  62
7
  6
CONTINUOUS
  0
ENDTAB
  0
ENDSEC
  0
SECTION
  2
ENTITIES
0
LINE
8
BLACK
6
CONTINUOUS
10
111.2482949999999988
20
-120.1116990000000015
11
111.4924269999999922
21
-120.1703100000000006
0
LINE
8
BLACK
6
CONTINUOUS
10
111.4924269999999922
20
-120.1703100000000006
11
111.7243849999999981
21
-120.2663900000000012
0
LINE
8
BLACK
6
CONTINUOUS
10
111.7243849999999981
20
-120.2663900000000012
11
111.938455999999988
21
-120.3975729999999942
0
LINE
8
BLACK
6
CONTINUOUS
10
111.938455999999988
20
-120.3975729999999942
11
112.1293709999999919
21
-120.5606289999999916
0
LINE
8
BLACK
6
CONTINUOUS
10
112.1293709999999919
20
-120.5606289999999916
11
112.2924269999999893
21
-120.7515439999999955
0
LINE
8
BLACK
6
CONTINUOUS
10
112.2924269999999893
20
-120.7515439999999955
11
112.4236099999999965
21
-120.9656149999999997
0
LINE
8
BLACK
6
CONTINUOUS
10
112.4236099999999965
20
-120.9656149999999997
11
112.5196899999999971
21
-121.1975729999999913
0
LINE
8
BLACK
6
CONTINUOUS
10
112.5196899999999971
20
-121.1975729999999913
11
112.5783009999999962
21
-121.4417049999999989
0
LINE
8
BLACK
6
CONTINUOUS
10
112.5783009999999962
20
-121.4417049999999989
11
112.597999999999999
21
-121.6919999999999931
0
LINE
8
BLACK
6
CONTINUOUS
10
112.597999999999999
20
-121.6919999999999931
11
112.5783009999999962
21
-121.9422950000000014
0
LINE
8
BLACK
6
CONTINUOUS
10
112.5783009999999962
20
-121.9422950000000014
11
112.5196899999999971
21
-122.1864269999999948
0
LINE
8
BLACK
6
CONTINUOUS
10
112.5196899999999971
20
-122.1864269999999948
11
112.4236099999999965
21
-122.4183850000000007
0
LINE
8
BLACK
6
CONTINUOUS
10
112.4236099999999965
20
-122.4183850000000007
11
112.2924269999999893
21
-122.6324559999999906
0
LINE
8
BLACK
6
CONTINUOUS
10
112.2924269999999893
20
-122.6324559999999906
11
112.1293709999999919
21
-122.8233709999999945
0
LINE
8
BLACK
6
CONTINUOUS
10
112.1293709999999919
20
-122.8233709999999945
11
111.938455999999988
21
-122.9864269999999919
0
LINE
8
BLACK
6
CONTINUOUS
10
111.938455999999988
20
-122.9864269999999919
11
111.7243849999999981
21
-123.1176099999999991
0
LINE
8
BLACK
6
CONTINUOUS
10
111.7243849999999981
20
-123.1176099999999991
11
111.4924269999999922
21
-123.2136899999999997
0
LINE
8
BLACK
6
CONTINUOUS
10
111.4924269999999922
20
-123.2136899999999997
11
111.2482949999999988
21
-123.2723009999999988
0
LINE
8
BLACK
6
CONTINUOUS
10
111.2482949999999988
20
-123.2723009999999988
11
110.9979999999999905
21
-123.2919999999999874
0
LINE
8
BLACK
6
CONTINUOUS
10
110.9979999999999905
20
-123.2919999999999874
11
110.7477049999999963
21
-123.2723009999999988
0
LINE
8
BLACK
6
CONTINUOUS
10
110.7477049999999963
20
-123.2723009999999988
11
110.5035729999999887
21
-123.2136899999999997
0
LINE
8
BLACK
6
CONTINUOUS
10
110.5035729999999887
20
-123.2136899999999997
11
110.2716149999999971
21
-123.1176099999999991
0
LINE
8
BLACK
6
CONTINUOUS
10
110.2716149999999971
20
-123.1176099999999991
11
110.0575439999999929
21
-122.9864269999999919
0
LINE
8
BLACK
6
CONTINUOUS
10
110.0575439999999929
20
-122.9864269999999919
11
109.866628999999989
21
-122.8233709999999945
0
LINE
8
BLACK
6
CONTINUOUS
10
109.866628999999989
20
-122.8233709999999945
11
109.7035729999999916
21
-122.6324559999999906
0
LINE
8
BLACK
6
CONTINUOUS
10
109.7035729999999916
20
-122.6324559999999906
11
109.5723899999999986
21
-122.4183850000000007
0
LINE
8
BLACK
6
CONTINUOUS
10
109.5723899999999986
20
-122.4183850000000007
11
109.476309999999998
21
-122.1864269999999948
0
LINE
8
BLACK
6
CONTINUOUS
10
109.476309999999998
20
-122.1864269999999948
11
109.4176989999999989
21
-121.9422950000000014
0
LINE
8
BLACK
6
CONTINUOUS
10
109.4176989999999989
20
-121.9422950000000014
11
109.3979999999999961
21
-121.6919999999999931
0
LINE
8
BLACK
6
CONTINUOUS
10
109.3979999999999961
20
-121.6919999999999931
11
109.4176989999999989
21
-121.4417049999999989
0
LINE
8
BLACK
6
CONTINUOUS
10
109.4176989999999989
20
-121.4417049999999989
11
109.476309999999998
21
-121.1975729999999913
0
LINE
8
BLACK
6
CONTINUOUS
10
109.476309999999998
20
-121.1975729999999913
11
109.5723899999999986
21
-120.9656149999999997
0
LINE
8
BLACK
6
CONTINUOUS
10
109.5723899999999986
20
-120.9656149999999997
11
109.7035729999999916
21
-120.7515439999999955
0
LINE
8
BLACK
6
CONTINUOUS
10
109.7035729999999916
20
-120.7515439999999955
11
109.866628999999989
21
-120.5606289999999916
0
LINE
8
BLACK
6
CONTINUOUS
10
109.866628999999989
20
-120.5606289999999916
11
110.0575439999999929
21
-120.3975729999999942
0
LINE
8
BLACK
6
CONTINUOUS
10
110.0575439999999929
20
-120.3975729999999942
11
110.2716149999999971
21
-120.2663900000000012
0
LINE
8
BLACK
6
CONTINUOUS
10
110.2716149999999971
20
-120.2663900000000012
11
110.5035729999999887
21
-120.1703100000000006
0
LINE
8
BLACK
6
CONTINUOUS
10
110.5035729999999887
20
-120.1703100000000006
11
110.7477049999999963
21
-120.1116990000000015
0
LINE
8
BLACK
6
CONTINUOUS
10
110.7477049999999963
20
-120.1116990000000015
11
110.9979999999999905
21
-120.0919999999999987
0
LINE
8
BLACK
6
CONTINUOUS
10
110.9979999999999905
20
-120.0919999999999987
11
111.2482949999999988
21
-120.1116990000000015
0
LINE
8
BLACK
6
CONTINUOUS
10
109.5133869999999945
20
-121.9397379999999913
11
109.5744119999999953
21
-122.1807179999999988
0
LINE
8
BLACK
6
CONTINUOUS
10
109.5744119999999953
20
-122.1807179999999988
11
109.6742679999999979
21
-122.4083679999999958
0
LINE
8
BLACK
6
CONTINUOUS
10
109.6742679999999979
20
-122.4083679999999958
11
109.8102319999999992
21
-122.6164769999999891
0
LINE
8
BLACK
6
CONTINUOUS
10
109.8102319999999992
20
-122.6164769999999891
11
109.978595999999996
21
-122.7993680000000012
0
LINE
8
BLACK
6
CONTINUOUS
10
109.978595999999996
20
-122.7993680000000012
11
110.1747659999999911
21
-122.9520539999999897
0
LINE
8
BLACK
6
CONTINUOUS
10
110.1747659999999911
20
-122.9520539999999897
11
110.3933919999999915
21
-123.0703679999999878
0
LINE
8
BLACK
6
CONTINUOUS
10
110.3933919999999915
20
-123.0703679999999878
11
110.6285099999999915
21
-123.1510839999999973
0
LINE
8
BLACK
6
CONTINUOUS
10
110.6285099999999915
20
-123.1510839999999973
11
110.8737059999999985
21
-123.1919999999999931
0
LINE
8
BLACK
6
CONTINUOUS
10
110.8737059999999985
20
-123.1919999999999931
11
111.1222939999999966
21
-123.1919999999999931
0
LINE
8
BLACK
6
CONTINUOUS
10
111.1222939999999966
20
-123.1919999999999931
11
111.3674899999999894
21
-123.1510839999999973
0
LINE
8
BLACK
6
CONTINUOUS
10
111.3674899999999894
20
-123.1510839999999973
11
111.6026079999999894
21
-123.0703679999999878
0
LINE
8
BLACK
6
CONTINUOUS
10
111.6026079999999894
20
-123.0703679999999878
11
111.8212339999999898
21
-122.9520539999999897
0
LINE
8
BLACK
6
CONTINUOUS
10
111.8212339999999898
20
-122.9520539999999897
11
112.0174039999999991
21
-122.7993680000000012
0
LINE
8
BLACK
6
CONTINUOUS
10
112.0174039999999991
20
-122.7993680000000012
11
112.1857679999999959
21
-122.6164769999999891
0
LINE
8
BLACK
6
CONTINUOUS
10
112.1857679999999959
20
-122.6164769999999891
11
112.3217319999999972
21
-122.4083679999999958
0
LINE
8
BLACK
6
CONTINUOUS
10
112.3217319999999972
20
-122.4083679999999958
11
112.4215879999999999
21
-122.1807179999999988
0
LINE
8
BLACK
6
CONTINUOUS
10
112.4215879999999999
20
-122.1807179999999988
11
112.4826130000000006
21
-121.9397379999999913
0
LINE
8
BLACK
6
CONTINUOUS
10
112.4826130000000006
20
-121.9397379999999913
11
112.5031409999999994
21
-121.6919999999999931
0
LINE
8
BLACK
6
CONTINUOUS
10
112.5031409999999994
20
-121.6919999999999931
11
112.4826130000000006
21
-121.4442619999999948
0
LINE
8
BLACK
6
CONTINUOUS
10
112.4826130000000006
20
-121.4442619999999948
11
112.4215879999999999
21
-121.2032820000000015
0
LINE
8
BLACK
6
CONTINUOUS
10
112.4215879999999999
20
-121.2032820000000015
11
112.3217319999999972
21
-120.9756319999999903
0
LINE
8
BLACK
6
CONTINUOUS
10
112.3217319999999972
20
-120.9756319999999903
11
112.1857679999999959
21
-120.7675229999999971
0
LINE
8
BLACK
6
CONTINUOUS
10
112.1857679999999959
20
-120.7675229999999971
11
112.0174039999999991
21
-120.5846319999999992
0
LINE
8
BLACK
6
CONTINUOUS
10
112.0174039999999991
20
-120.5846319999999992
11
111.8212339999999898
21
-120.4319459999999964
0
LINE
8
BLACK
6
CONTINUOUS
10
111.8212339999999898
20
-120.4319459999999964
11
111.6026079999999894
21
-120.3136319999999984
0
LINE
8
BLACK
6
CONTINUOUS
10
111.6026079999999894
20
-120.3136319999999984
11
111.3674899999999894
21
-120.2329159999999888
0
LINE
8
BLACK
6
CONTINUOUS
10
111.3674899999999894
20
-120.2329159999999888
11
111.1222939999999966
21
-120.1919999999999931
0
LINE
8
BLACK
6
CONTINUOUS
10
111.1222939999999966
20
-120.1919999999999931
11
110.8737059999999985
21
-120.1919999999999931
0
LINE
8
BLACK
6
CONTINUOUS
10
110.8737059999999985
20
-120.1919999999999931
11
110.6285099999999915
21
-120.2329159999999888
0
LINE
8
BLACK
6
CONTINUOUS
10
110.6285099999999915
20
-120.2329159999999888
11
110.3933919999999915
21
-120.3136319999999984
0
LINE
8
BLACK
6
CONTINUOUS
10
110.3933919999999915
20
-120.3136319999999984
11
110.1747659999999911
21
-120.4319459999999964
0
LINE
8
BLACK
6
CONTINUOUS
10
110.1747659999999911
20
-120.4319459999999964
11
109.978595999999996
21
-120.5846319999999992
0
LINE
8
BLACK
6
CONTINUOUS
10
109.978595999999996
20
-120.5846319999999992
11
109.8102319999999992
21
-120.7675229999999971
0
LINE
8
BLACK
6
CONTINUOUS
10
109.8102319999999992
20
-120.7675229999999971
11
109.6742679999999979
21
-120.9756319999999903
0
LINE
8
BLACK
6
CONTINUOUS
10
109.6742679999999979
20
-120.9756319999999903
11
109.5744119999999953
21
-121.2032820000000015
0
LINE
8
BLACK
6
CONTINUOUS
10
109.5744119999999953
20
-121.2032820000000015
11
109.5133869999999945
21
-121.4442619999999948
0
LINE
8
BLACK
6
CONTINUOUS
10
109.5133869999999945
20
-121.4442619999999948
11
109.4928589999999957
21
-121.6919999999999931
0
LINE
8
BLACK
6
CONTINUOUS
10
109.4928589999999957
20
-121.6919999999999931
11
109.5133869999999945
21
-121.9397379999999913
0
LINE
8
BLACK
6
CONTINUOUS
10
171.7002949999999828
20
-120.1116990000000015
11
171.9444269999999904
21
-120.1703100000000006
0
LINE
8
BLACK
6
CONTINUOUS
10
171.9444269999999904
20
-120.1703100000000006
11
172.176384999999982
21
-120.2663900000000012
0
LINE
8
BLACK
6
CONTINUOUS
10
172.176384999999982
20
-120.2663900000000012
11
172.3904560000000004
21
-120.3975729999999942
0
LINE
8
BLACK
6
CONTINUOUS
10
172.3904560000000004
20
-120.3975729999999942
11
172.5813709999999901
21
-120.5606289999999916
0
LINE
8
BLACK
6
CONTINUOUS
10
172.5813709999999901
20
-120.5606289999999916
11
172.7444270000000017
21
-120.7515439999999955
0
LINE
8
BLACK
6
CONTINUOUS
10
172.7444270000000017
20
-120.7515439999999955
11
172.8756099999999947
21
-120.9656149999999997
0
LINE
8
BLACK
6
CONTINUOUS
10
172.8756099999999947
20
-120.9656149999999997
11
172.9716899999999953
21
-121.1975729999999913
0
LINE
8
BLACK
6
CONTINUOUS
10
172.9716899999999953
20
-121.1975729999999913
11
173.0303009999999801
21
-121.4417049999999989
0
LINE
8
BLACK
6
CONTINUOUS
10
173.0303009999999801
20
-121.4417049999999989
11
173.0499999999999829
21
-121.6919999999999931
0
LINE
8
BLACK
6
CONTINUOUS
10
173.0499999999999829
20
-121.6919999999999931
11
173.0303009999999801
21
-121.9422950000000014
0
LINE
8
BLACK
6
CONTINUOUS
10
173.0303009999999801
20
-121.9422950000000014
11
172.9716899999999953
21
-122.1864269999999948
0
LINE
8
BLACK
6
CONTINUOUS
10
172.9716899999999953
20
-122.1864269999999948
11
172.8756099999999947
21
-122.4183850000000007
0
LINE
8
BLACK
6
CONTINUOUS
10
172.8756099999999947
20
-122.4183850000000007
11
172.7444270000000017
21
-122.6324559999999906
0
LINE
8
BLACK
6
CONTINUOUS
10
172.7444270000000017
20
-122.6324559999999906
11
172.5813709999999901
21
-122.8233709999999945
0
LINE
8
BLACK
6
CONTINUOUS
10
172.5813709999999901
20
-122.8233709999999945
11
172.3904560000000004
21
-122.9864269999999919
0
LINE
8
BLACK
6
CONTINUOUS
10
172.3904560000000004
20
-122.9864269999999919
11
172.176384999999982
21
-123.1176099999999991
0
LINE
8
BLACK
6
CONTINUOUS
10
172.176384999999982
20
-123.1176099999999991
11
171.9444269999999904
21
-123.2136899999999997
0
LINE
8
BLACK
6
CONTINUOUS
10
171.9444269999999904
20
-123.2136899999999997
11
171.7002949999999828
21
-123.2723009999999988
0
LINE
8
BLACK
6
CONTINUOUS
10
171.7002949999999828
20
-123.2723009999999988
11
171.4499999999999886
21
-123.2919999999999874
0
LINE
8
BLACK
6
CONTINUOUS
10
171.4499999999999886
20
-123.2919999999999874
11
171.1997049999999945
21
-123.2723009999999988
0
LINE
8
BLACK
6
CONTINUOUS
10
171.1997049999999945
20
-123.2723009999999988
11
170.9555729999999869
21
-123.2136899999999997
0
LINE
8
BLACK
6
CONTINUOUS
10
170.9555729999999869
20
-123.2136899999999997
11
170.7236149999999952
21
-123.1176099999999991
0
LINE
8
BLACK
6
CONTINUOUS
10
170.7236149999999952
20
-123.1176099999999991
11
170.5095440000000053
21
-122.9864269999999919
0
LINE
8
BLACK
6
CONTINUOUS
10
170.5095440000000053
20
-122.9864269999999919
11
170.3186289999999872
21
-122.8233709999999945
0
LINE
8
BLACK
6
CONTINUOUS
10
170.3186289999999872
20
-122.8233709999999945
11
170.155573000000004
21
-122.6324559999999906
0
LINE
8
BLACK
6
CONTINUOUS
10
170.155573000000004
20
-122.6324559999999906
11
170.0243899999999826
21
-122.4183850000000007
0
LINE
8
BLACK
6
CONTINUOUS
10
170.0243899999999826
20
-122.4183850000000007
11
169.928309999999982
21
-122.1864269999999948
0
LINE
8
BLACK
6
CONTINUOUS
10
169.928309999999982
20
-122.1864269999999948
11
169.8696989999999971
21
-121.9422950000000014
0
LINE
8
BLACK
6
CONTINUOUS
10
169.8696989999999971
20
-121.9422950000000014
11
169.8499999999999943
21
-121.6919999999999931
0
LINE
8
BLACK
6
CONTINUOUS
10
169.8499999999999943
20
-121.6919999999999931
11
169.8696989999999971
21
-121.4417049999999989
0
LINE
8
BLACK
6
CONTINUOUS
10
169.8696989999999971
20
-121.4417049999999989
11
169.928309999999982
21
-121.1975729999999913
0
LINE
8
BLACK
6
CONTINUOUS
10
169.928309999999982
20
-121.1975729999999913
11
170.0243899999999826
21
-120.9656149999999997
0
LINE
8
BLACK
6
CONTINUOUS
10
170.0243899999999826
20
-120.9656149999999997
11
170.155573000000004
21
-120.7515439999999955
0
LINE
8
BLACK
6
CONTINUOUS
10
170.155573000000004
20
-120.7515439999999955
11
170.3186289999999872
21
-120.5606289999999916
0
LINE
8
BLACK
6
CONTINUOUS
10
170.3186289999999872
20
-120.5606289999999916
11
170.5095440000000053
21
-120.3975729999999942
0
LINE
8
BLACK
6
CONTINUOUS
10
170.5095440000000053
20
-120.3975729999999942
11
170.7236149999999952
21
-120.2663900000000012
0
LINE
8
BLACK
6
CONTINUOUS
10
170.7236149999999952
20
-120.2663900000000012
11
170.9555729999999869
21
-120.1703100000000006
0
LINE
8
BLACK
6
CONTINUOUS
10
170.9555729999999869
20
-120.1703100000000006
11
171.1997049999999945
21
-120.1116990000000015
0
LINE
8
BLACK
6
CONTINUOUS
10
171.1997049999999945
20
-120.1116990000000015
11
171.4499999999999886
21
-120.0919999999999987
0
LINE
8
BLACK
6
CONTINUOUS
10
171.4499999999999886
20
-120.0919999999999987
11
171.7002949999999828
21
-120.1116990000000015
0
LINE
8
BLACK
6
CONTINUOUS
10
169.9653869999999927
20
-121.9397379999999913
11
170.0264119999999934
21
-122.1807179999999988
0
LINE
8
BLACK
6
CONTINUOUS
10
170.0264119999999934
20
-122.1807179999999988
11
170.1262679999999818
21
-122.4083679999999958
0
LINE
8
BLACK
6
CONTINUOUS
10
170.1262679999999818
20
-122.4083679999999958
11
170.2622319999999831
21
-122.6164769999999891
0
LINE
8
BLACK
6
CONTINUOUS
10
170.2622319999999831
20
-122.6164769999999891
11
170.43059599999998
21
-122.7993680000000012
0
LINE
8
BLACK
6
CONTINUOUS
10
170.43059599999998
20
-122.7993680000000012
11
170.6267660000000035
21
-122.9520539999999897
0
LINE
8
BLACK
6
CONTINUOUS
10
170.6267660000000035
20
-122.9520539999999897
11
170.8453920000000039
21
-123.0703679999999878
0
LINE
8
BLACK
6
CONTINUOUS
10
170.8453920000000039
20
-123.0703679999999878
11
171.0805100000000039
21
-123.1510839999999973
0
LINE
8
BLACK
6
CONTINUOUS
10
171.0805100000000039
20
-123.1510839999999973
11
171.3257059999999967
21
-123.1919999999999931
0
LINE
8
BLACK
6
CONTINUOUS
10
171.3257059999999967
20
-123.1919999999999931
11
171.5742939999999805
21
-123.1919999999999931
0
LINE
8
BLACK
6
CONTINUOUS
10
171.5742939999999805
20
-123.1919999999999931
11
171.8194900000000018
21
-123.1510839999999973
0
LINE
8
BLACK
6
CONTINUOUS
10
171.8194900000000018
20
-123.1510839999999973
11
172.0546080000000018
21
-123.0703679999999878
0
LINE
8
BLACK
6
CONTINUOUS
10
172.0546080000000018
20
-123.0703679999999878
11
172.2732340000000022
21
-122.9520539999999897
0
LINE
8
BLACK
6
CONTINUOUS
10
172.2732340000000022
20
-122.9520539999999897
11
172.4694039999999973
21
-122.7993680000000012
0
LINE
8
BLACK
6
CONTINUOUS
10
172.4694039999999973
20
-122.7993680000000012
11
172.6377679999999941
21
-122.6164769999999891
0
LINE
8
BLACK
6
CONTINUOUS
10
172.6377679999999941
20
-122.6164769999999891
11
172.7737319999999954
21
-122.4083679999999958
0
LINE
8
BLACK
6
CONTINUOUS
10
172.7737319999999954
20
-122.4083679999999958
11
172.8735879999999838
21
-122.1807179999999988
0
LINE
8
BLACK
6
CONTINUOUS
10
172.8735879999999838
20
-122.1807179999999988
11
172.9346129999999846
21
-121.9397379999999913
0
LINE
8
BLACK
6
CONTINUOUS
10
172.9346129999999846
20
-121.9397379999999913
11
172.9551409999999976
21
-121.6919999999999931
0
LINE
8
BLACK
6
CONTINUOUS
10
172.9551409999999976
20
-121.6919999999999931
11
172.9346129999999846
21
-121.4442619999999948
0
LINE
8
BLACK
6
CONTINUOUS
10
172.9346129999999846
20
-121.4442619999999948
11
172.8735879999999838
21
-121.2032820000000015
0
LINE
8
BLACK
6
CONTINUOUS
10
172.8735879999999838
20
-121.2032820000000015
11
172.7737319999999954
21
-120.9756319999999903
0
LINE
8
BLACK
6
CONTINUOUS
10
172.7737319999999954
20
-120.9756319999999903
11
172.6377679999999941
21
-120.7675229999999971
0
LINE
8
BLACK
6
CONTINUOUS
10
172.6377679999999941
20
-120.7675229999999971
11
172.4694039999999973
21
-120.5846319999999992
0
LINE
8
BLACK
6
CONTINUOUS
10
172.4694039999999973
20
-120.5846319999999992
11
172.2732340000000022
21
-120.4319459999999964
0
LINE
8
BLACK
6
CONTINUOUS
10
172.2732340000000022
20
-120.4319459999999964
11
172.0546080000000018
21
-120.3136319999999984
0
LINE
8
BLACK
6
CONTINUOUS
10
172.0546080000000018
20
-120.3136319999999984
11
171.8194900000000018
21
-120.2329159999999888
0
LINE
8
BLACK
6
CONTINUOUS
10
171.8194900000000018
20
-120.2329159999999888
11
171.5742939999999805
21
-120.1919999999999931
0
LINE
8
BLACK
6
CONTINUOUS
10
171.5742939999999805
20
-120.1919999999999931
11
171.3257059999999967
21
-120.1919999999999931
0
LINE
8
BLACK
6
CONTINUOUS
10
171.3257059999999967
20
-120.1919999999999931
11
171.0805100000000039
21
-120.2329159999999888
0
LINE
8
BLACK
6
CONTINUOUS
10
171.0805100000000039
20
-120.2329159999999888
11
170.8453920000000039
21
-120.3136319999999984
0
LINE
8
BLACK
6
CONTINUOUS
10
170.8453920000000039
20
-120.3136319999999984
11
170.6267660000000035
21
-120.4319459999999964
0
LINE
8
BLACK
6
CONTINUOUS
10
170.6267660000000035
20
-120.4319459999999964
11
170.43059599999998
21
-120.5846319999999992
0
LINE
8
BLACK
6
CONTINUOUS
10
170.43059599999998
20
-120.5846319999999992
11
170.2622319999999831
21
-120.7675229999999971
0
LINE
8
BLACK
6
CONTINUOUS
10
170.2622319999999831
20
-120.7675229999999971
11
170.1262679999999818
21
-120.9756319999999903
0
LINE
8
BLACK
6
CONTINUOUS
10
170.1262679999999818
20
-120.9756319999999903
11
170.0264119999999934
21
-121.2032820000000015
0
LINE
8
BLACK
6
CONTINUOUS
10
170.0264119999999934
20
-121.2032820000000015
11
169.9653869999999927
21
-121.4442619999999948
0
LINE
8
BLACK
6
CONTINUOUS
10
169.9653869999999927
20
-121.4442619999999948
11
169.9448589999999797
21
-121.6919999999999931
0
LINE
8
BLACK
6
CONTINUOUS
10
169.9448589999999797
20
-121.6919999999999931
11
169.9653869999999927
21
-121.9397379999999913
0
LINE
8
BLACK
6
CONTINUOUS
10
111.2482949999999988
20
-69.0576989999999995
11
111.4924269999999922
21
-69.1163099999999986
0
LINE
8
BLACK
6
CONTINUOUS
10
111.4924269999999922
20
-69.1163099999999986
11
111.7243849999999981
21
-69.2123899999999992
0
LINE
8
BLACK
6
CONTINUOUS
10
111.7243849999999981
20
-69.2123899999999992
11
111.938455999999988
21
-69.3435729999999921
0
LINE
8
BLACK
6
CONTINUOUS
10
111.938455999999988
20
-69.3435729999999921
11
112.1293709999999919
21
-69.5066290000000038
0
LINE
8
BLACK
6
CONTINUOUS
10
112.1293709999999919
20
-69.5066290000000038
11
112.2924269999999893
21
-69.6975439999999935
0
LINE
8
BLACK
6
CONTINUOUS
10
112.2924269999999893
20
-69.6975439999999935
11
112.4236099999999965
21
-69.9116149999999976
0
LINE
8
BLACK
6
CONTINUOUS
10
112.4236099999999965
20
-69.9116149999999976
11
112.5196899999999971
21
-70.1435730000000035
0
LINE
8
BLACK
6
CONTINUOUS
10
112.5196899999999971
20
-70.1435730000000035
11
112.5783009999999962
21
-70.3877049999999969
0
LINE
8
BLACK
6
CONTINUOUS
10
112.5783009999999962
20
-70.3877049999999969
11
112.597999999999999
21
-70.637999999999991
0
LINE
8
BLACK
6
CONTINUOUS
10
112.597999999999999
20
-70.637999999999991
11
112.5783009999999962
21
-70.8882949999999994
0
LINE
8
BLACK
6
CONTINUOUS
10
112.5783009999999962
20
-70.8882949999999994
11
112.5196899999999971
21
-71.1324269999999927
0
LINE
8
BLACK
6
CONTINUOUS
10
112.5196899999999971
20
-71.1324269999999927
11
112.4236099999999965
21
-71.3643849999999986
0
LINE
8
BLACK
6
CONTINUOUS
10
112.4236099999999965
20
-71.3643849999999986
11
112.2924269999999893
21
-71.5784560000000027
0
LINE
8
BLACK
6
CONTINUOUS
10
112.2924269999999893
20
-71.5784560000000027
11
112.1293709999999919
21
-71.7693709999999925
0
LINE
8
BLACK
6
CONTINUOUS
10
112.1293709999999919
20
-71.7693709999999925
11
111.938455999999988
21
-71.9324269999999899
0
LINE
8
BLACK
6
CONTINUOUS
10
111.938455999999988
20
-71.9324269999999899
11
111.7243849999999981
21
-72.0636099999999971
0
LINE
8
BLACK
6
CONTINUOUS
10
111.7243849999999981
20
-72.0636099999999971
11
111.4924269999999922
21
-72.1596899999999977
0
LINE
8
BLACK
6
CONTINUOUS
10
111.4924269999999922
20
-72.1596899999999977
11
111.2482949999999988
21
-72.2183009999999967
0
LINE
8
BLACK
6
CONTINUOUS
10
111.2482949999999988
20
-72.2183009999999967
11
110.9979999999999905
21
-72.2379999999999995
0
LINE
8
BLACK
6
CONTINUOUS
10
110.9979999999999905
20
-72.2379999999999995
11
110.7477049999999963
21
-72.2183009999999967
0
LINE
8
BLACK
6
CONTINUOUS
10
110.7477049999999963
20
-72.2183009999999967
11
110.5035729999999887
21
-72.1596899999999977
0
LINE
8
BLACK
6
CONTINUOUS
10
110.5035729999999887
20
-72.1596899999999977
11
110.2716149999999971
21
-72.0636099999999971
0
LINE
8
BLACK
6
CONTINUOUS
10
110.2716149999999971
20
-72.0636099999999971
11
110.0575439999999929
21
-71.9324269999999899
0
LINE
8
BLACK
6
CONTINUOUS
10
110.0575439999999929
20
-71.9324269999999899
11
109.866628999999989
21
-71.7693709999999925
0
LINE
8
BLACK
6
CONTINUOUS
10
109.866628999999989
20
-71.7693709999999925
11
109.7035729999999916
21
-71.5784560000000027
0
LINE
8
BLACK
6
CONTINUOUS
10
109.7035729999999916
20
-71.5784560000000027
11
109.5723899999999986
21
-71.3643849999999986
0
LINE
8
BLACK
6
CONTINUOUS
10
109.5723899999999986
20
-71.3643849999999986
11
109.476309999999998
21
-71.1324269999999927
0
LINE
8
BLACK
6
CONTINUOUS
10
109.476309999999998
20
-71.1324269999999927
11
109.4176989999999989
21
-70.8882949999999994
0
LINE
8
BLACK
6
CONTINUOUS
10
109.4176989999999989
20
-70.8882949999999994
11
109.3979999999999961
21
-70.637999999999991
0
LINE
8
BLACK
6
CONTINUOUS
10
109.3979999999999961
20
-70.637999999999991
11
109.4176989999999989
21
-70.3877049999999969
0
LINE
8
BLACK
6
CONTINUOUS
10
109.4176989999999989
20
-70.3877049999999969
11
109.476309999999998
21
-70.1435730000000035
0
LINE
8
BLACK
6
CONTINUOUS
10
109.476309999999998
20
-70.1435730000000035
11
109.5723899999999986
21
-69.9116149999999976
0
LINE
8
BLACK
6
CONTINUOUS
10
109.5723899999999986
20
-69.9116149999999976
11
109.7035729999999916
21
-69.6975439999999935
0
LINE
8
BLACK
6
CONTINUOUS
10
109.7035729999999916
20
-69.6975439999999935
11
109.866628999999989
21
-69.5066290000000038
0
LINE
8
BLACK
6
CONTINUOUS
10
109.866628999999989
20
-69.5066290000000038
11
110.0575439999999929
21
-69.3435729999999921
0
LINE
8
BLACK
6
CONTINUOUS
10
110.0575439999999929
20
-69.3435729999999921
11
110.2716149999999971
21
-69.2123899999999992
0
LINE
8
BLACK
6
CONTINUOUS
10
110.2716149999999971
20
-69.2123899999999992
11
110.5035729999999887
21
-69.1163099999999986
0
LINE
8
BLACK
6
CONTINUOUS
10
110.5035729999999887
20
-69.1163099999999986
11
110.7477049999999963
21
-69.0576989999999995
0
LINE
8
BLACK
6
CONTINUOUS
10
110.7477049999999963
20
-69.0576989999999995
11
110.9979999999999905
21
-69.0379999999999967
0
LINE
8
BLACK
6
CONTINUOUS
10
110.9979999999999905
20
-69.0379999999999967
11
111.2482949999999988
21
-69.0576989999999995
0
LINE
8
BLACK
6
CONTINUOUS
10
109.5133869999999945
20
-70.8857380000000035
11
109.5744119999999953
21
-71.1267179999999968
0
LINE
8
BLACK
6
CONTINUOUS
10
109.5744119999999953
20
-71.1267179999999968
11
109.6742679999999979
21
-71.3543679999999938
0
LINE
8
BLACK
6
CONTINUOUS
10
109.6742679999999979
20
-71.3543679999999938
11
109.8102319999999992
21
-71.5624770000000012
0
LINE
8
BLACK
6
CONTINUOUS
10
109.8102319999999992
20
-71.5624770000000012
11
109.978595999999996
21
-71.7453679999999991
0
LINE
8
BLACK
6
CONTINUOUS
10
109.978595999999996
20
-71.7453679999999991
11
110.1747659999999911
21
-71.8980540000000019
0
LINE
8
BLACK
6
CONTINUOUS
10
110.1747659999999911
20
-71.8980540000000019
11
110.3933919999999915
21
-72.0163679999999999
0
LINE
8
BLACK
6
CONTINUOUS
10
110.3933919999999915
20
-72.0163679999999999
11
110.6285099999999915
21
-72.0970839999999953
0
LINE
8
BLACK
6
CONTINUOUS
10
110.6285099999999915
20
-72.0970839999999953
11
110.8737059999999985
21
-72.137999999999991
0
LINE
8
BLACK
6
CONTINUOUS
10
110.8737059999999985
20
-72.137999999999991
11
111.1222939999999966
21
-72.137999999999991
0
LINE
8
BLACK
6
CONTINUOUS
10
111.1222939999999966
20
-72.137999999999991
11
111.3674899999999894
21
-72.0970839999999953
0
LINE
8
BLACK
6
CONTINUOUS
10
111.3674899999999894
20
-72.0970839999999953
11
111.6026079999999894
21
-72.0163679999999999
0
LINE
8
BLACK
6
CONTINUOUS
10
111.6026079999999894
20
-72.0163679999999999
11
111.8212339999999898
21
-71.8980540000000019
0
LINE
8
BLACK
6
CONTINUOUS
10
111.8212339999999898
20
-71.8980540000000019
11
112.0174039999999991
21
-71.7453679999999991
0
LINE
8
BLACK
6
CONTINUOUS
10
112.0174039999999991
20
-71.7453679999999991
11
112.1857679999999959
21
-71.5624770000000012
0
LINE
8
BLACK
6
CONTINUOUS
10
112.1857679999999959
20
-71.5624770000000012
11
112.3217319999999972
21
-71.3543679999999938
0
LINE
8
BLACK
6
CONTINUOUS
10
112.3217319999999972
20
-71.3543679999999938
11
112.4215879999999999
21
-71.1267179999999968
0
LINE
8
BLACK
6
CONTINUOUS
10
112.4215879999999999
20
-71.1267179999999968
11
112.4826130000000006
21
-70.8857380000000035
0
LINE
8
BLACK
6
CONTINUOUS
10
112.4826130000000006
20
-70.8857380000000035
11
112.5031409999999994
21
-70.637999999999991
0
LINE
8
BLACK
6
CONTINUOUS
10
112.5031409999999994
20
-70.637999999999991
11
112.4826130000000006
21
-70.3902619999999928
0
LINE
8
BLACK
6
CONTINUOUS
10
112.4826130000000006
20
-70.3902619999999928
11
112.4215879999999999
21
-70.1492819999999995
0
LINE
8
BLACK
6
CONTINUOUS
10
112.4215879999999999
20
-70.1492819999999995
11
112.3217319999999972
21
-69.9216320000000024
0
LINE
8
BLACK
6
CONTINUOUS
10
112.3217319999999972
20
-69.9216320000000024
11
112.1857679999999959
21
-69.713522999999995
0
LINE
8
BLACK
6
CONTINUOUS
10
112.1857679999999959
20
-69.713522999999995
11
112.0174039999999991
21
-69.5306319999999971
0
LINE
8
BLACK
6
CONTINUOUS
10
112.0174039999999991
20
-69.5306319999999971
11
111.8212339999999898
21
-69.3779459999999943
0
LINE
8
BLACK
6
CONTINUOUS
10
111.8212339999999898
20
-69.3779459999999943
11
111.6026079999999894
21
-69.2596319999999963
0
LINE
8
BLACK
6
CONTINUOUS
10
111.6026079999999894
20
-69.2596319999999963
11
111.3674899999999894
21
-69.178916000000001
0
LINE
8
BLACK
6
CONTINUOUS
10
111.3674899999999894
20
-69.178916000000001
11
111.1222939999999966
21
-69.137999999999991
0
LINE
8
BLACK
6
CONTINUOUS
10
111.1222939999999966
20
-69.137999999999991
11
110.8737059999999985
21
-69.137999999999991
0
LINE
8
BLACK
6
CONTINUOUS
10
110.8737059999999985
20
-69.137999999999991
11
110.6285099999999915
21
-69.178916000000001
0
LINE
8
BLACK
6
CONTINUOUS
10
110.6285099999999915
20
-69.178916000000001
11
110.3933919999999915
21
-69.2596319999999963
0
LINE
8
BLACK
6
CONTINUOUS
10
110.3933919999999915
20
-69.2596319999999963
11
110.1747659999999911
21
-69.3779459999999943
0
LINE
8
BLACK
6
CONTINUOUS
10
110.1747659999999911
20
-69.3779459999999943
11
109.978595999999996
21
-69.5306319999999971
0
LINE
8
BLACK
6
CONTINUOUS
10
109.978595999999996
20
-69.5306319999999971
11
109.8102319999999992
21
-69.713522999999995
0
LINE
8
BLACK
6
CONTINUOUS
10
109.8102319999999992
20
-69.713522999999995
11
109.6742679999999979
21
-69.9216320000000024
0
LINE
8
BLACK
6
CONTINUOUS
10
109.6742679999999979
20
-69.9216320000000024
11
109.5744119999999953
21
-70.1492819999999995
0
LINE
8
BLACK
6
CONTINUOUS
10
109.5744119999999953
20
-70.1492819999999995
11
109.5133869999999945
21
-70.3902619999999928
0
LINE
8
BLACK
6
CONTINUOUS
10
109.5133869999999945
20
-70.3902619999999928
11
109.4928589999999957
21
-70.637999999999991
0
LINE
8
BLACK
6
CONTINUOUS
10
109.4928589999999957
20
-70.637999999999991
11
109.5133869999999945
21
-70.8857380000000035
0
LINE
8
BLACK
6
CONTINUOUS
10
171.7002949999999828
20
-69.0576989999999995
11
171.9444269999999904
21
-69.1163099999999986
0
LINE
8
BLACK
6
CONTINUOUS
10
171.9444269999999904
20
-69.1163099999999986
11
172.176384999999982
21
-69.2123899999999992
0
LINE
8
BLACK
6
CONTINUOUS
10
172.176384999999982
20
-69.2123899999999992
11
172.3904560000000004
21
-69.3435729999999921
0
LINE
8
BLACK
6
CONTINUOUS
10
172.3904560000000004
20
-69.3435729999999921
11
172.5813709999999901
21
-69.5066290000000038
0
LINE
8
BLACK
6
CONTINUOUS
10
172.5813709999999901
20
-69.5066290000000038
11
172.7444270000000017
21
-69.6975439999999935
0
LINE
8
BLACK
6
CONTINUOUS
10
172.7444270000000017
20
-69.6975439999999935
11
172.8756099999999947
21
-69.9116149999999976
0
LINE
8
BLACK
6
CONTINUOUS
10
172.8756099999999947
20
-69.9116149999999976
11
172.9716899999999953
21
-70.1435730000000035
0
LINE
8
BLACK
6
CONTINUOUS
10
172.9716899999999953
20
-70.1435730000000035
11
173.0303009999999801
21
-70.3877049999999969
0
LINE
8
BLACK
6
CONTINUOUS
10
173.0303009999999801
20
-70.3877049999999969
11
173.0499999999999829
21
-70.637999999999991
0
LINE
8
BLACK
6
CONTINUOUS
10
173.0499999999999829
20
-70.637999999999991
11
173.0303009999999801
21
-70.8882949999999994
0
LINE
8
BLACK
6
CONTINUOUS
10
173.0303009999999801
20
-70.8882949999999994
11
172.9716899999999953
21
-71.1324269999999927
0
LINE
8
BLACK
6
CONTINUOUS
10
172.9716899999999953
20
-71.1324269999999927
11
172.8756099999999947
21
-71.3643849999999986
0
LINE
8
BLACK
6
CONTINUOUS
10
172.8756099999999947
20
-71.3643849999999986
11
172.7444270000000017
21
-71.5784560000000027
0
LINE
8
BLACK
6
CONTINUOUS
10
172.7444270000000017
20
-71.5784560000000027
11
172.5813709999999901
21
-71.7693709999999925
0
LINE
8
BLACK
6
CONTINUOUS
10
172.5813709999999901
20
-71.7693709999999925
11
172.3904560000000004
21
-71.9324269999999899
0
LINE
8
BLACK
6
CONTINUOUS
10
172.3904560000000004
20
-71.9324269999999899
11
172.176384999999982
21
-72.0636099999999971
0
LINE
8
BLACK
6
CONTINUOUS
10
172.176384999999982
20
-72.0636099999999971
11
171.9444269999999904
21
-72.1596899999999977
0
LINE
8
BLACK
6
CONTINUOUS
10
171.9444269999999904
20
-72.1596899999999977
11
171.7002949999999828
21
-72.2183009999999967
0
LINE
8
BLACK
6
CONTINUOUS
10
171.7002949999999828
20
-72.2183009999999967
11
171.4499999999999886
21
-72.2379999999999995
0
LINE
8
BLACK
6
CONTINUOUS
10
171.4499999999999886
20
-72.2379999999999995
11
171.1997049999999945
21
-72.2183009999999967
0
LINE
8
BLACK
6
CONTINUOUS
10
171.1997049999999945
20
-72.2183009999999967
11
170.9555729999999869
21
-72.1596899999999977
0
LINE
8
BLACK
6
CONTINUOUS
10
170.9555729999999869
20
-72.1596899999999977
11
170.7236149999999952
21
-72.0636099999999971
0
LINE
8
BLACK
6
CONTINUOUS
10
170.7236149999999952
20
-72.0636099999999971
11
170.5095440000000053
21
-71.9324269999999899
0
LINE
8
BLACK
6
CONTINUOUS
10
170.5095440000000053
20
-71.9324269999999899
11
170.3186289999999872
21
-71.7693709999999925
0
LINE
8
BLACK
6
CONTINUOUS
10
170.3186289999999872
20
-71.7693709999999925
11
170.155573000000004
21
-71.5784560000000027
0
LINE
8
BLACK
6
CONTINUOUS
10
170.155573000000004
20
-71.5784560000000027
11
170.0243899999999826
21
-71.3643849999999986
0
LINE
8
BLACK
6
CONTINUOUS
10
170.0243899999999826
20
-71.3643849999999986
11
169.928309999999982
21
-71.1324269999999927
0
LINE
8
BLACK
6
CONTINUOUS
10
169.928309999999982
20
-71.1324269999999927
11
169.8696989999999971
21
-70.8882949999999994
0
LINE
8
BLACK
6
CONTINUOUS
10
169.8696989999999971
20
-70.8882949999999994
11
169.8499999999999943
21
-70.637999999999991
0
LINE
8
BLACK
6
CONTINUOUS
10
169.8499999999999943
20
-70.637999999999991
11
169.8696989999999971
21
-70.3877049999999969
0
LINE
8
BLACK
6
CONTINUOUS
10
169.8696989999999971
20
-70.3877049999999969
11
169.928309999999982
21
-70.1435730000000035
0
LINE
8
BLACK
6
CONTINUOUS
10
169.928309999999982
20
-70.1435730000000035
11
170.0243899999999826
21
-69.9116149999999976
0
LINE
8
BLACK
6
CONTINUOUS
10
170.0243899999999826
20
-69.9116149999999976
11
170.155573000000004
21
-69.6975439999999935
0
LINE
8
BLACK
6
CONTINUOUS
10
170.155573000000004
20
-69.6975439999999935
11
170.3186289999999872
21
-69.5066290000000038
0
LINE
8
BLACK
6
CONTINUOUS
10
170.3186289999999872
20
-69.5066290000000038
11
170.5095440000000053
21
-69.3435729999999921
0
LINE
8
BLACK
6
CONTINUOUS
10
170.5095440000000053
20
-69.3435729999999921
11
170.7236149999999952
21
-69.2123899999999992
0
LINE
8
BLACK
6
CONTINUOUS
10
170.7236149999999952
20
-69.2123899999999992
11
170.9555729999999869
21
-69.1163099999999986
0
LINE
8
BLACK
6
CONTINUOUS
10
170.9555729999999869
20
-69.1163099999999986
11
171.1997049999999945
21
-69.0576989999999995
0
LINE
8
BLACK
6
CONTINUOUS
10
171.1997049999999945
20
-69.0576989999999995
11
171.4499999999999886
21
-69.0379999999999967
0
LINE
8
BLACK
6
CONTINUOUS
10
171.4499999999999886
20
-69.0379999999999967
11
171.7002949999999828
21
-69.0576989999999995
0
LINE
8
BLACK
6
CONTINUOUS
10
169.9653869999999927
20
-70.8857380000000035
11
170.0264119999999934
21
-71.1267179999999968
0
LINE
8
BLACK
6
CONTINUOUS
10
170.0264119999999934
20
-71.1267179999999968
11
170.1262679999999818
21
-71.3543679999999938
0
LINE
8
BLACK
6
CONTINUOUS
10
170.1262679999999818
20
-71.3543679999999938
11
170.2622319999999831
21
-71.5624770000000012
0
LINE
8
BLACK
6
CONTINUOUS
10
170.2622319999999831
20
-71.5624770000000012
11
170.43059599999998
21
-71.7453679999999991
0
LINE
8
BLACK
6
CONTINUOUS
10
170.43059599999998
20
-71.7453679999999991
11
170.6267660000000035
21
-71.8980540000000019
0
LINE
8
BLACK
6
CONTINUOUS
10
170.6267660000000035
20
-71.8980540000000019
11
170.8453920000000039
21
-72.0163679999999999
0
LINE
8
BLACK
6
CONTINUOUS
10
170.8453920000000039
20
-72.0163679999999999
11
171.0805100000000039
21
-72.0970839999999953
0
LINE
8
BLACK
6
CONTINUOUS
10
171.0805100000000039
20
-72.0970839999999953
11
171.3257059999999967
21
-72.137999999999991
0
LINE
8
BLACK
6
CONTINUOUS
10
171.3257059999999967
20
-72.137999999999991
11
171.5742939999999805
21
-72.137999999999991
0
LINE
8
BLACK
6
CONTINUOUS
10
171.5742939999999805
20
-72.137999999999991
11
171.8194900000000018
21
-72.0970839999999953
0
LINE
8
BLACK
6
CONTINUOUS
10
171.8194900000000018
20
-72.0970839999999953
11
172.0546080000000018
21
-72.0163679999999999
0
LINE
8
BLACK
6
CONTINUOUS
10
172.0546080000000018
20
-72.0163679999999999
11
172.2732340000000022
21
-71.8980540000000019
0
LINE
8
BLACK
6
CONTINUOUS
10
172.2732340000000022
20
-71.8980540000000019
11
172.4694039999999973
21
-71.7453679999999991
0
LINE
8
BLACK
6
CONTINUOUS
10
172.4694039999999973
20
-71.7453679999999991
11
172.6377679999999941
21
-71.5624770000000012
0
LINE
8
BLACK
6
CONTINUOUS
10
172.6377679999999941
20
-71.5624770000000012
11
172.7737319999999954
21
-71.3543679999999938
0
LINE
8
BLACK
6
CONTINUOUS
10
172.7737319999999954
20
-71.3543679999999938
11
172.8735879999999838
21
-71.1267179999999968
0
LINE
8
BLACK
6
CONTINUOUS
10
172.8735879999999838
20
-71.1267179999999968
11
172.9346129999999846
21
-70.8857380000000035
0
LINE
8
BLACK
6
CONTINUOUS
10
172.9346129999999846
20
-70.8857380000000035
11
172.9551409999999976
21
-70.637999999999991
0
LINE
8
BLACK
6
CONTINUOUS
10
172.9551409999999976
20
-70.637999999999991
11
172.9346129999999846
21
-70.3902619999999928
0
LINE
8
BLACK
6
CONTINUOUS
10
172.9346129999999846
20
-70.3902619999999928
11
172.8735879999999838
21
-70.1492819999999995
0
LINE
8
BLACK
6
CONTINUOUS
10
172.8735879999999838
20
-70.1492819999999995
11
172.7737319999999954
21
-69.9216320000000024
0
LINE
8
BLACK
6
CONTINUOUS
10
172.7737319999999954
20
-69.9216320000000024
11
172.6377679999999941
21
-69.713522999999995
0
LINE
8
BLACK
6
CONTINUOUS
10
172.6377679999999941
20
-69.713522999999995
11
172.4694039999999973
21
-69.5306319999999971
0
LINE
8
BLACK
6
CONTINUOUS
10
172.4694039999999973
20
-69.5306319999999971
11
172.2732340000000022
21
-69.3779459999999943
0
LINE
8
BLACK
6
CONTINUOUS
10
172.2732340000000022
20
-69.3779459999999943
11
172.0546080000000018
21
-69.2596319999999963
0
LINE
8
BLACK
6
CONTINUOUS
10
172.0546080000000018
20
-69.2596319999999963
11
171.8194900000000018
21
-69.178916000000001
0
LINE
8
BLACK
6
CONTINUOUS
10
171.8194900000000018
20
-69.178916000000001
11
171.5742939999999805
21
-69.137999999999991
0
LINE
8
BLACK
6
CONTINUOUS
10
171.5742939999999805
20
-69.137999999999991
11
171.3257059999999967
21
-69.137999999999991
0
LINE
8
BLACK
6
CONTINUOUS
10
171.3257059999999967
20
-69.137999999999991
11
171.0805100000000039
21
-69.178916000000001
0
LINE
8
BLACK
6
CONTINUOUS
10
171.0805100000000039
20
-69.178916000000001
11
170.8453920000000039
21
-69.2596319999999963
0
LINE
8
BLACK
6
CONTINUOUS
10
170.8453920000000039
20
-69.2596319999999963
11
170.6267660000000035
21
-69.3779459999999943
0
LINE
8
BLACK
6
CONTINUOUS
10
170.6267660000000035
20
-69.3779459999999943
11
170.43059599999998
21
-69.5306319999999971
0
LINE
8
BLACK
6
CONTINUOUS
10
170.43059599999998
20
-69.5306319999999971
11
170.2622319999999831
21
-69.713522999999995
0
LINE
8
BLACK
6
CONTINUOUS
10
170.2622319999999831
20
-69.713522999999995
11
170.1262679999999818
21
-69.9216320000000024
0
LINE
8
BLACK
6
CONTINUOUS
10
170.1262679999999818
20
-69.9216320000000024
11
170.0264119999999934
21
-70.1492819999999995
0
LINE
8
BLACK
6
CONTINUOUS
10
170.0264119999999934
20
-70.1492819999999995
11
169.9653869999999927
21
-70.3902619999999928
0
LINE
8
BLACK
6
CONTINUOUS
10
169.9653869999999927
20
-70.3902619999999928
11
169.9448589999999797
21
-70.637999999999991
0
LINE
8
BLACK
6
CONTINUOUS
10
169.9448589999999797
20
-70.637999999999991
11
169.9653869999999927
21
-70.8857380000000035
0
LINE
8
BLACK
6
CONTINUOUS
10
174.5130629999999883
20
-67.4020709999999923
11
174.528901999999988
21
-67.4020709999999923
0
LINE
8
BLACK
6
CONTINUOUS
10
174.528901999999988
20
-67.4020709999999923
11
174.5417149999999822
21
-67.4113799999999941
0
LINE
8
BLACK
6
CONTINUOUS
10
174.5417149999999822
20
-67.4113799999999941
11
174.5567790000000059
21
-67.4162749999999988
0
LINE
8
BLACK
6
CONTINUOUS
10
174.5567790000000059
20
-67.4162749999999988
11
174.5660879999999793
21
-67.429087999999993
0
LINE
8
BLACK
6
CONTINUOUS
10
174.5660879999999793
20
-67.429087999999993
11
174.5789019999999994
21
-67.4383979999999923
0
LINE
8
BLACK
6
CONTINUOUS
10
174.5789019999999994
20
-67.4383979999999923
11
174.5837959999999782
21
-67.4534609999999901
0
LINE
8
BLACK
6
CONTINUOUS
10
174.5837959999999782
20
-67.4534609999999901
11
174.5931060000000059
21
-67.466274999999996
0
LINE
8
BLACK
6
CONTINUOUS
10
174.5931060000000059
20
-67.466274999999996
11
174.5931060000000059
21
-67.4821139999999957
0
LINE
8
BLACK
6
CONTINUOUS
10
174.5931060000000059
20
-67.4821139999999957
11
174.5979999999999848
21
-67.4971769999999935
0
LINE
8
BLACK
6
CONTINUOUS
10
174.5979999999999848
20
-67.4971769999999935
11
174.5979999999999848
21
-124.7474099999999879
0
LINE
8
BLACK
6
CONTINUOUS
10
174.5979999999999848
20
-124.7474099999999879
11
174.5931060000000059
21
-124.7624719999999883
0
LINE
8
BLACK
6
CONTINUOUS
10
174.5931060000000059
20
-124.7624719999999883
11
174.5931060000000059
21
-124.7783119999999997
0
LINE
8
BLACK
6
CONTINUOUS
10
174.5931060000000059
20
-124.7783119999999997
11
174.5837959999999782
21
-124.7911249999999939
0
LINE
8
BLACK
6
CONTINUOUS
10
174.5837959999999782
20
-124.7911249999999939
11
174.5789019999999994
21
-124.8061889999999892
0
LINE
8
BLACK
6
CONTINUOUS
10
174.5789019999999994
20
-124.8061889999999892
11
174.5660879999999793
21
-124.815497999999991
0
LINE
8
BLACK
6
CONTINUOUS
10
174.5660879999999793
20
-124.815497999999991
11
174.5567790000000059
21
-124.8283119999999968
0
LINE
8
BLACK
6
CONTINUOUS
10
174.5567790000000059
20
-124.8283119999999968
11
174.5417149999999822
21
-124.8332059999999899
0
LINE
8
BLACK
6
CONTINUOUS
10
174.5417149999999822
20
-124.8332059999999899
11
174.528901999999988
21
-124.8425159999999892
0
LINE
8
BLACK
6
CONTINUOUS
10
174.528901999999988
20
-124.8425159999999892
11
174.5130629999999883
21
-124.8425159999999892
0
LINE
8
BLACK
6
CONTINUOUS
10
174.5130629999999883
20
-124.8425159999999892
11
174.4979999999999905
21
-124.8474099999999964
0
LINE
8
BLACK
6
CONTINUOUS
10
174.4979999999999905
20
-124.8474099999999964
11
107.8831769999999892
21
-124.8474099999999964
0
LINE
8
BLACK
6
CONTINUOUS
10
107.8831769999999892
20
-124.8474099999999964
11
107.8681139999999914
21
-124.8425159999999892
0
LINE
8
BLACK
6
CONTINUOUS
10
107.8681139999999914
20
-124.8425159999999892
11
107.8522749999999917
21
-124.8425159999999892
0
LINE
8
BLACK
6
CONTINUOUS
10
107.8522749999999917
20
-124.8425159999999892
11
107.839461
21
-124.8332059999999899
0
LINE
8
BLACK
6
CONTINUOUS
10
107.839461
20
-124.8332059999999899
11
107.8243980000000022
21
-124.8283119999999968
0
LINE
8
BLACK
6
CONTINUOUS
10
107.8243980000000022
20
-124.8283119999999968
11
107.8150879999999887
21
-124.815497999999991
0
LINE
8
BLACK
6
CONTINUOUS
10
107.8150879999999887
20
-124.815497999999991
11
107.8022749999999945
21
-124.8061889999999892
0
LINE
8
BLACK
6
CONTINUOUS
10
107.8022749999999945
20
-124.8061889999999892
11
107.7973799999999898
21
-124.7911249999999939
0
LINE
8
BLACK
6
CONTINUOUS
10
107.7973799999999898
20
-124.7911249999999939
11
107.7880710000000022
21
-124.7783119999999997
0
LINE
8
BLACK
6
CONTINUOUS
10
107.7880710000000022
20
-124.7783119999999997
11
107.7880710000000022
21
-124.7624719999999883
0
LINE
8
BLACK
6
CONTINUOUS
10
107.7880710000000022
20
-124.7624719999999883
11
107.7831769999999949
21
-124.7474099999999879
0
LINE
8
BLACK
6
CONTINUOUS
10
107.7831769999999949
20
-124.7474099999999879
11
107.7831769999999949
21
-67.4971769999999935
0
LINE
8
BLACK
6
CONTINUOUS
10
107.7831769999999949
20
-67.4971769999999935
11
107.7880710000000022
21
-67.4821139999999957
0
LINE
8
BLACK
6
CONTINUOUS
10
107.7880710000000022
20
-67.4821139999999957
11
107.7880710000000022
21
-67.466274999999996
0
LINE
8
BLACK
6
CONTINUOUS
10
107.7880710000000022
20
-67.466274999999996
11
107.7973799999999898
21
-67.4534609999999901
0
LINE
8
BLACK
6
CONTINUOUS
10
107.7973799999999898
20
-67.4534609999999901
11
107.8022749999999945
21
-67.4383979999999923
0
LINE
8
BLACK
6
CONTINUOUS
10
107.8022749999999945
20
-67.4383979999999923
11
107.8150879999999887
21
-67.429087999999993
0
LINE
8
BLACK
6
CONTINUOUS
10
107.8150879999999887
20
-67.429087999999993
11
107.8243980000000022
21
-67.4162749999999988
0
LINE
8
BLACK
6
CONTINUOUS
10
107.8243980000000022
20
-67.4162749999999988
11
107.839461
21
-67.4113799999999941
0
LINE
8
BLACK
6
CONTINUOUS
10
107.839461
20
-67.4113799999999941
11
107.8522749999999917
21
-67.4020709999999923
0
LINE
8
BLACK
6
CONTINUOUS
10
107.8522749999999917
20
-67.4020709999999923
11
107.8681139999999914
21
-67.4020709999999923
0
LINE
8
BLACK
6
CONTINUOUS
10
107.8681139999999914
20
-67.4020709999999923
11
107.8831769999999892
21
-67.3971769999999992
0
LINE
8
BLACK
6
CONTINUOUS
10
107.8831769999999892
20
-67.3971769999999992
11
174.4979999999999905
21
-67.3971769999999992
0
LINE
8
BLACK
6
CONTINUOUS
10
174.4979999999999905
20
-67.3971769999999992
11
174.5130629999999883
21
-67.4020709999999923
0
LINE
8
BLACK
6
CONTINUOUS
10
107.9831769999999977
20
-67.5971770000000021
11
107.9831769999999977
21
-124.6474099999999936
0
LINE
8
BLACK
6
CONTINUOUS
10
107.9831769999999977
20
-124.6474099999999936
11
174.3979999999999961
21
-124.6474099999999936
0
LINE
8
BLACK
6
CONTINUOUS
10
174.3979999999999961
20
-124.6474099999999936
11
174.3979999999999961
21
-67.5971770000000021
0
LINE
8
BLACK
6
CONTINUOUS
10
174.3979999999999961
20
-67.5971770000000021
11
107.9831769999999977
21
-67.5971770000000021
  0
ENDSEC
  0
EOF
