%TF.GenerationSoftware,KiCad,Pcbnew,7.0.10*%
%TF.CreationDate,2025-01-30T22:16:48+01:00*%
%TF.ProjectId,bike_computer,62696b65-5f63-46f6-9d70-757465722e6b,rev?*%
%TF.SameCoordinates,Original*%
%TF.FileFunction,Legend,Top*%
%TF.FilePolarity,Positive*%
%FSLAX46Y46*%
G04 Gerber Fmt 4.6, Leading zero omitted, Abs format (unit mm)*
G04 Created by KiCad (PCBNEW 7.0.10) date 2025-01-30 22:16:48*
%MOMM*%
%LPD*%
G01*
G04 APERTURE LIST*
%ADD10C,0.153000*%
%ADD11C,0.150000*%
%ADD12C,0.254000*%
%ADD13C,0.120000*%
G04 APERTURE END LIST*
D10*
X139395799Y-80580472D02*
X139395799Y-79080472D01*
X140252942Y-80580472D02*
X139610085Y-79723329D01*
X140252942Y-79080472D02*
X139395799Y-79937615D01*
X139395799Y-83120472D02*
X139395799Y-81620472D01*
X139395799Y-81620472D02*
X139752942Y-81620472D01*
X139752942Y-81620472D02*
X139967228Y-81691901D01*
X139967228Y-81691901D02*
X140110085Y-81834758D01*
X140110085Y-81834758D02*
X140181514Y-81977615D01*
X140181514Y-81977615D02*
X140252942Y-82263329D01*
X140252942Y-82263329D02*
X140252942Y-82477615D01*
X140252942Y-82477615D02*
X140181514Y-82763329D01*
X140181514Y-82763329D02*
X140110085Y-82906186D01*
X140110085Y-82906186D02*
X139967228Y-83049044D01*
X139967228Y-83049044D02*
X139752942Y-83120472D01*
X139752942Y-83120472D02*
X139395799Y-83120472D01*
X139252942Y-74000472D02*
X140181514Y-74000472D01*
X140181514Y-74000472D02*
X139681514Y-74571901D01*
X139681514Y-74571901D02*
X139895799Y-74571901D01*
X139895799Y-74571901D02*
X140038657Y-74643329D01*
X140038657Y-74643329D02*
X140110085Y-74714758D01*
X140110085Y-74714758D02*
X140181514Y-74857615D01*
X140181514Y-74857615D02*
X140181514Y-75214758D01*
X140181514Y-75214758D02*
X140110085Y-75357615D01*
X140110085Y-75357615D02*
X140038657Y-75429044D01*
X140038657Y-75429044D02*
X139895799Y-75500472D01*
X139895799Y-75500472D02*
X139467228Y-75500472D01*
X139467228Y-75500472D02*
X139324371Y-75429044D01*
X139324371Y-75429044D02*
X139252942Y-75357615D01*
X140181514Y-76611901D02*
X140038657Y-76540472D01*
X140038657Y-76540472D02*
X139824371Y-76540472D01*
X139824371Y-76540472D02*
X139610085Y-76611901D01*
X139610085Y-76611901D02*
X139467228Y-76754758D01*
X139467228Y-76754758D02*
X139395799Y-76897615D01*
X139395799Y-76897615D02*
X139324371Y-77183329D01*
X139324371Y-77183329D02*
X139324371Y-77397615D01*
X139324371Y-77397615D02*
X139395799Y-77683329D01*
X139395799Y-77683329D02*
X139467228Y-77826186D01*
X139467228Y-77826186D02*
X139610085Y-77969044D01*
X139610085Y-77969044D02*
X139824371Y-78040472D01*
X139824371Y-78040472D02*
X139967228Y-78040472D01*
X139967228Y-78040472D02*
X140181514Y-77969044D01*
X140181514Y-77969044D02*
X140252942Y-77897615D01*
X140252942Y-77897615D02*
X140252942Y-77397615D01*
X140252942Y-77397615D02*
X139967228Y-77397615D01*
X139649799Y-72960472D02*
X139649799Y-71460472D01*
D11*
X169277009Y-85011904D02*
X169277009Y-85345237D01*
X169800819Y-85345237D02*
X168800819Y-85345237D01*
X168800819Y-85345237D02*
X168800819Y-84869047D01*
X169800819Y-83916666D02*
X169324628Y-84249999D01*
X169800819Y-84488094D02*
X168800819Y-84488094D01*
X168800819Y-84488094D02*
X168800819Y-84107142D01*
X168800819Y-84107142D02*
X168848438Y-84011904D01*
X168848438Y-84011904D02*
X168896057Y-83964285D01*
X168896057Y-83964285D02*
X168991295Y-83916666D01*
X168991295Y-83916666D02*
X169134152Y-83916666D01*
X169134152Y-83916666D02*
X169229390Y-83964285D01*
X169229390Y-83964285D02*
X169277009Y-84011904D01*
X169277009Y-84011904D02*
X169324628Y-84107142D01*
X169324628Y-84107142D02*
X169324628Y-84488094D01*
X169896057Y-83726190D02*
X169896057Y-82964285D01*
X169800819Y-82249999D02*
X169800819Y-82726189D01*
X169800819Y-82726189D02*
X168800819Y-82726189D01*
X168800819Y-82059522D02*
X168800819Y-81488094D01*
X169800819Y-81773808D02*
X168800819Y-81773808D01*
X169419866Y-81154760D02*
X169419866Y-80392856D01*
X169800819Y-80773808D02*
X169038914Y-80773808D01*
X169419866Y-79916665D02*
X169419866Y-79154761D01*
X169753200Y-99418189D02*
X169800819Y-99275332D01*
X169800819Y-99275332D02*
X169800819Y-99037237D01*
X169800819Y-99037237D02*
X169753200Y-98941999D01*
X169753200Y-98941999D02*
X169705580Y-98894380D01*
X169705580Y-98894380D02*
X169610342Y-98846761D01*
X169610342Y-98846761D02*
X169515104Y-98846761D01*
X169515104Y-98846761D02*
X169419866Y-98894380D01*
X169419866Y-98894380D02*
X169372247Y-98941999D01*
X169372247Y-98941999D02*
X169324628Y-99037237D01*
X169324628Y-99037237D02*
X169277009Y-99227713D01*
X169277009Y-99227713D02*
X169229390Y-99322951D01*
X169229390Y-99322951D02*
X169181771Y-99370570D01*
X169181771Y-99370570D02*
X169086533Y-99418189D01*
X169086533Y-99418189D02*
X168991295Y-99418189D01*
X168991295Y-99418189D02*
X168896057Y-99370570D01*
X168896057Y-99370570D02*
X168848438Y-99322951D01*
X168848438Y-99322951D02*
X168800819Y-99227713D01*
X168800819Y-99227713D02*
X168800819Y-98989618D01*
X168800819Y-98989618D02*
X168848438Y-98846761D01*
X169800819Y-97846761D02*
X169324628Y-98180094D01*
X169800819Y-98418189D02*
X168800819Y-98418189D01*
X168800819Y-98418189D02*
X168800819Y-98037237D01*
X168800819Y-98037237D02*
X168848438Y-97941999D01*
X168848438Y-97941999D02*
X168896057Y-97894380D01*
X168896057Y-97894380D02*
X168991295Y-97846761D01*
X168991295Y-97846761D02*
X169134152Y-97846761D01*
X169134152Y-97846761D02*
X169229390Y-97894380D01*
X169229390Y-97894380D02*
X169277009Y-97941999D01*
X169277009Y-97941999D02*
X169324628Y-98037237D01*
X169324628Y-98037237D02*
X169324628Y-98418189D01*
X168800819Y-97561046D02*
X169800819Y-97227713D01*
X169800819Y-97227713D02*
X168800819Y-96894380D01*
X168800819Y-96370570D02*
X168800819Y-96180094D01*
X168800819Y-96180094D02*
X168848438Y-96084856D01*
X168848438Y-96084856D02*
X168943676Y-95989618D01*
X168943676Y-95989618D02*
X169134152Y-95941999D01*
X169134152Y-95941999D02*
X169467485Y-95941999D01*
X169467485Y-95941999D02*
X169657961Y-95989618D01*
X169657961Y-95989618D02*
X169753200Y-96084856D01*
X169753200Y-96084856D02*
X169800819Y-96180094D01*
X169800819Y-96180094D02*
X169800819Y-96370570D01*
X169800819Y-96370570D02*
X169753200Y-96465808D01*
X169753200Y-96465808D02*
X169657961Y-96561046D01*
X169657961Y-96561046D02*
X169467485Y-96608665D01*
X169467485Y-96608665D02*
X169134152Y-96608665D01*
X169134152Y-96608665D02*
X168943676Y-96561046D01*
X168943676Y-96561046D02*
X168848438Y-96465808D01*
X168848438Y-96465808D02*
X168800819Y-96370570D01*
X169419866Y-95513427D02*
X169419866Y-94751523D01*
X169800819Y-95132475D02*
X169038914Y-95132475D01*
X169419866Y-94275332D02*
X169419866Y-93513428D01*
X169277009Y-78095333D02*
X169324628Y-77952476D01*
X169324628Y-77952476D02*
X169372247Y-77904857D01*
X169372247Y-77904857D02*
X169467485Y-77857238D01*
X169467485Y-77857238D02*
X169610342Y-77857238D01*
X169610342Y-77857238D02*
X169705580Y-77904857D01*
X169705580Y-77904857D02*
X169753200Y-77952476D01*
X169753200Y-77952476D02*
X169800819Y-78047714D01*
X169800819Y-78047714D02*
X169800819Y-78428666D01*
X169800819Y-78428666D02*
X168800819Y-78428666D01*
X168800819Y-78428666D02*
X168800819Y-78095333D01*
X168800819Y-78095333D02*
X168848438Y-78000095D01*
X168848438Y-78000095D02*
X168896057Y-77952476D01*
X168896057Y-77952476D02*
X168991295Y-77904857D01*
X168991295Y-77904857D02*
X169086533Y-77904857D01*
X169086533Y-77904857D02*
X169181771Y-77952476D01*
X169181771Y-77952476D02*
X169229390Y-78000095D01*
X169229390Y-78000095D02*
X169277009Y-78095333D01*
X169277009Y-78095333D02*
X169277009Y-78428666D01*
X169800819Y-77428666D02*
X168800819Y-77428666D01*
X169800819Y-76857238D02*
X169229390Y-77285809D01*
X168800819Y-76857238D02*
X169372247Y-77428666D01*
X169896057Y-76666762D02*
X169896057Y-75904857D01*
X169800819Y-75190571D02*
X169800819Y-75666761D01*
X169800819Y-75666761D02*
X168800819Y-75666761D01*
X168800819Y-75000094D02*
X168800819Y-74428666D01*
X169800819Y-74714380D02*
X168800819Y-74714380D01*
X169419866Y-74095332D02*
X169419866Y-73333428D01*
X169800819Y-73714380D02*
X169038914Y-73714380D01*
X169419866Y-72857237D02*
X169419866Y-72095333D01*
X143609333Y-77881580D02*
X143561714Y-77929200D01*
X143561714Y-77929200D02*
X143418857Y-77976819D01*
X143418857Y-77976819D02*
X143323619Y-77976819D01*
X143323619Y-77976819D02*
X143180762Y-77929200D01*
X143180762Y-77929200D02*
X143085524Y-77833961D01*
X143085524Y-77833961D02*
X143037905Y-77738723D01*
X143037905Y-77738723D02*
X142990286Y-77548247D01*
X142990286Y-77548247D02*
X142990286Y-77405390D01*
X142990286Y-77405390D02*
X143037905Y-77214914D01*
X143037905Y-77214914D02*
X143085524Y-77119676D01*
X143085524Y-77119676D02*
X143180762Y-77024438D01*
X143180762Y-77024438D02*
X143323619Y-76976819D01*
X143323619Y-76976819D02*
X143418857Y-76976819D01*
X143418857Y-76976819D02*
X143561714Y-77024438D01*
X143561714Y-77024438D02*
X143609333Y-77072057D01*
X143942667Y-76976819D02*
X144561714Y-76976819D01*
X144561714Y-76976819D02*
X144228381Y-77357771D01*
X144228381Y-77357771D02*
X144371238Y-77357771D01*
X144371238Y-77357771D02*
X144466476Y-77405390D01*
X144466476Y-77405390D02*
X144514095Y-77453009D01*
X144514095Y-77453009D02*
X144561714Y-77548247D01*
X144561714Y-77548247D02*
X144561714Y-77786342D01*
X144561714Y-77786342D02*
X144514095Y-77881580D01*
X144514095Y-77881580D02*
X144466476Y-77929200D01*
X144466476Y-77929200D02*
X144371238Y-77976819D01*
X144371238Y-77976819D02*
X144085524Y-77976819D01*
X144085524Y-77976819D02*
X143990286Y-77929200D01*
X143990286Y-77929200D02*
X143942667Y-77881580D01*
X169753200Y-92401428D02*
X169800819Y-92258571D01*
X169800819Y-92258571D02*
X169800819Y-92020476D01*
X169800819Y-92020476D02*
X169753200Y-91925238D01*
X169753200Y-91925238D02*
X169705580Y-91877619D01*
X169705580Y-91877619D02*
X169610342Y-91830000D01*
X169610342Y-91830000D02*
X169515104Y-91830000D01*
X169515104Y-91830000D02*
X169419866Y-91877619D01*
X169419866Y-91877619D02*
X169372247Y-91925238D01*
X169372247Y-91925238D02*
X169324628Y-92020476D01*
X169324628Y-92020476D02*
X169277009Y-92210952D01*
X169277009Y-92210952D02*
X169229390Y-92306190D01*
X169229390Y-92306190D02*
X169181771Y-92353809D01*
X169181771Y-92353809D02*
X169086533Y-92401428D01*
X169086533Y-92401428D02*
X168991295Y-92401428D01*
X168991295Y-92401428D02*
X168896057Y-92353809D01*
X168896057Y-92353809D02*
X168848438Y-92306190D01*
X168848438Y-92306190D02*
X168800819Y-92210952D01*
X168800819Y-92210952D02*
X168800819Y-91972857D01*
X168800819Y-91972857D02*
X168848438Y-91830000D01*
X169800819Y-90830000D02*
X169324628Y-91163333D01*
X169800819Y-91401428D02*
X168800819Y-91401428D01*
X168800819Y-91401428D02*
X168800819Y-91020476D01*
X168800819Y-91020476D02*
X168848438Y-90925238D01*
X168848438Y-90925238D02*
X168896057Y-90877619D01*
X168896057Y-90877619D02*
X168991295Y-90830000D01*
X168991295Y-90830000D02*
X169134152Y-90830000D01*
X169134152Y-90830000D02*
X169229390Y-90877619D01*
X169229390Y-90877619D02*
X169277009Y-90925238D01*
X169277009Y-90925238D02*
X169324628Y-91020476D01*
X169324628Y-91020476D02*
X169324628Y-91401428D01*
X168800819Y-90544285D02*
X169800819Y-90210952D01*
X169800819Y-90210952D02*
X168800819Y-89877619D01*
X168753200Y-88830000D02*
X170038914Y-89687142D01*
X169800819Y-88496666D02*
X168800819Y-88496666D01*
X169277009Y-88496666D02*
X169277009Y-87925238D01*
X169800819Y-87925238D02*
X168800819Y-87925238D01*
X169800819Y-86972857D02*
X169800819Y-87449047D01*
X169800819Y-87449047D02*
X168800819Y-87449047D01*
X169800819Y-86163333D02*
X169800819Y-86639523D01*
X169800819Y-86639523D02*
X168800819Y-86639523D01*
X115304667Y-74353200D02*
X115447524Y-74400819D01*
X115447524Y-74400819D02*
X115685619Y-74400819D01*
X115685619Y-74400819D02*
X115780857Y-74353200D01*
X115780857Y-74353200D02*
X115828476Y-74305580D01*
X115828476Y-74305580D02*
X115876095Y-74210342D01*
X115876095Y-74210342D02*
X115876095Y-74115104D01*
X115876095Y-74115104D02*
X115828476Y-74019866D01*
X115828476Y-74019866D02*
X115780857Y-73972247D01*
X115780857Y-73972247D02*
X115685619Y-73924628D01*
X115685619Y-73924628D02*
X115495143Y-73877009D01*
X115495143Y-73877009D02*
X115399905Y-73829390D01*
X115399905Y-73829390D02*
X115352286Y-73781771D01*
X115352286Y-73781771D02*
X115304667Y-73686533D01*
X115304667Y-73686533D02*
X115304667Y-73591295D01*
X115304667Y-73591295D02*
X115352286Y-73496057D01*
X115352286Y-73496057D02*
X115399905Y-73448438D01*
X115399905Y-73448438D02*
X115495143Y-73400819D01*
X115495143Y-73400819D02*
X115733238Y-73400819D01*
X115733238Y-73400819D02*
X115876095Y-73448438D01*
X116209429Y-73400819D02*
X116447524Y-74400819D01*
X116447524Y-74400819D02*
X116638000Y-73686533D01*
X116638000Y-73686533D02*
X116828476Y-74400819D01*
X116828476Y-74400819D02*
X117066572Y-73400819D01*
X117971333Y-74400819D02*
X117399905Y-74400819D01*
X117685619Y-74400819D02*
X117685619Y-73400819D01*
X117685619Y-73400819D02*
X117590381Y-73543676D01*
X117590381Y-73543676D02*
X117495143Y-73638914D01*
X117495143Y-73638914D02*
X117399905Y-73686533D01*
X158855580Y-96019857D02*
X158903200Y-96067476D01*
X158903200Y-96067476D02*
X158950819Y-96210333D01*
X158950819Y-96210333D02*
X158950819Y-96305571D01*
X158950819Y-96305571D02*
X158903200Y-96448428D01*
X158903200Y-96448428D02*
X158807961Y-96543666D01*
X158807961Y-96543666D02*
X158712723Y-96591285D01*
X158712723Y-96591285D02*
X158522247Y-96638904D01*
X158522247Y-96638904D02*
X158379390Y-96638904D01*
X158379390Y-96638904D02*
X158188914Y-96591285D01*
X158188914Y-96591285D02*
X158093676Y-96543666D01*
X158093676Y-96543666D02*
X157998438Y-96448428D01*
X157998438Y-96448428D02*
X157950819Y-96305571D01*
X157950819Y-96305571D02*
X157950819Y-96210333D01*
X157950819Y-96210333D02*
X157998438Y-96067476D01*
X157998438Y-96067476D02*
X158046057Y-96019857D01*
X158950819Y-95067476D02*
X158950819Y-95638904D01*
X158950819Y-95353190D02*
X157950819Y-95353190D01*
X157950819Y-95353190D02*
X158093676Y-95448428D01*
X158093676Y-95448428D02*
X158188914Y-95543666D01*
X158188914Y-95543666D02*
X158236533Y-95638904D01*
X157950819Y-94448428D02*
X157950819Y-94353190D01*
X157950819Y-94353190D02*
X157998438Y-94257952D01*
X157998438Y-94257952D02*
X158046057Y-94210333D01*
X158046057Y-94210333D02*
X158141295Y-94162714D01*
X158141295Y-94162714D02*
X158331771Y-94115095D01*
X158331771Y-94115095D02*
X158569866Y-94115095D01*
X158569866Y-94115095D02*
X158760342Y-94162714D01*
X158760342Y-94162714D02*
X158855580Y-94210333D01*
X158855580Y-94210333D02*
X158903200Y-94257952D01*
X158903200Y-94257952D02*
X158950819Y-94353190D01*
X158950819Y-94353190D02*
X158950819Y-94448428D01*
X158950819Y-94448428D02*
X158903200Y-94543666D01*
X158903200Y-94543666D02*
X158855580Y-94591285D01*
X158855580Y-94591285D02*
X158760342Y-94638904D01*
X158760342Y-94638904D02*
X158569866Y-94686523D01*
X158569866Y-94686523D02*
X158331771Y-94686523D01*
X158331771Y-94686523D02*
X158141295Y-94638904D01*
X158141295Y-94638904D02*
X158046057Y-94591285D01*
X158046057Y-94591285D02*
X157998438Y-94543666D01*
X157998438Y-94543666D02*
X157950819Y-94448428D01*
X143584333Y-84781580D02*
X143536714Y-84829200D01*
X143536714Y-84829200D02*
X143393857Y-84876819D01*
X143393857Y-84876819D02*
X143298619Y-84876819D01*
X143298619Y-84876819D02*
X143155762Y-84829200D01*
X143155762Y-84829200D02*
X143060524Y-84733961D01*
X143060524Y-84733961D02*
X143012905Y-84638723D01*
X143012905Y-84638723D02*
X142965286Y-84448247D01*
X142965286Y-84448247D02*
X142965286Y-84305390D01*
X142965286Y-84305390D02*
X143012905Y-84114914D01*
X143012905Y-84114914D02*
X143060524Y-84019676D01*
X143060524Y-84019676D02*
X143155762Y-83924438D01*
X143155762Y-83924438D02*
X143298619Y-83876819D01*
X143298619Y-83876819D02*
X143393857Y-83876819D01*
X143393857Y-83876819D02*
X143536714Y-83924438D01*
X143536714Y-83924438D02*
X143584333Y-83972057D01*
X143965286Y-83972057D02*
X144012905Y-83924438D01*
X144012905Y-83924438D02*
X144108143Y-83876819D01*
X144108143Y-83876819D02*
X144346238Y-83876819D01*
X144346238Y-83876819D02*
X144441476Y-83924438D01*
X144441476Y-83924438D02*
X144489095Y-83972057D01*
X144489095Y-83972057D02*
X144536714Y-84067295D01*
X144536714Y-84067295D02*
X144536714Y-84162533D01*
X144536714Y-84162533D02*
X144489095Y-84305390D01*
X144489095Y-84305390D02*
X143917667Y-84876819D01*
X143917667Y-84876819D02*
X144536714Y-84876819D01*
X119734333Y-94466580D02*
X119686714Y-94514200D01*
X119686714Y-94514200D02*
X119543857Y-94561819D01*
X119543857Y-94561819D02*
X119448619Y-94561819D01*
X119448619Y-94561819D02*
X119305762Y-94514200D01*
X119305762Y-94514200D02*
X119210524Y-94418961D01*
X119210524Y-94418961D02*
X119162905Y-94323723D01*
X119162905Y-94323723D02*
X119115286Y-94133247D01*
X119115286Y-94133247D02*
X119115286Y-93990390D01*
X119115286Y-93990390D02*
X119162905Y-93799914D01*
X119162905Y-93799914D02*
X119210524Y-93704676D01*
X119210524Y-93704676D02*
X119305762Y-93609438D01*
X119305762Y-93609438D02*
X119448619Y-93561819D01*
X119448619Y-93561819D02*
X119543857Y-93561819D01*
X119543857Y-93561819D02*
X119686714Y-93609438D01*
X119686714Y-93609438D02*
X119734333Y-93657057D01*
X120305762Y-93990390D02*
X120210524Y-93942771D01*
X120210524Y-93942771D02*
X120162905Y-93895152D01*
X120162905Y-93895152D02*
X120115286Y-93799914D01*
X120115286Y-93799914D02*
X120115286Y-93752295D01*
X120115286Y-93752295D02*
X120162905Y-93657057D01*
X120162905Y-93657057D02*
X120210524Y-93609438D01*
X120210524Y-93609438D02*
X120305762Y-93561819D01*
X120305762Y-93561819D02*
X120496238Y-93561819D01*
X120496238Y-93561819D02*
X120591476Y-93609438D01*
X120591476Y-93609438D02*
X120639095Y-93657057D01*
X120639095Y-93657057D02*
X120686714Y-93752295D01*
X120686714Y-93752295D02*
X120686714Y-93799914D01*
X120686714Y-93799914D02*
X120639095Y-93895152D01*
X120639095Y-93895152D02*
X120591476Y-93942771D01*
X120591476Y-93942771D02*
X120496238Y-93990390D01*
X120496238Y-93990390D02*
X120305762Y-93990390D01*
X120305762Y-93990390D02*
X120210524Y-94038009D01*
X120210524Y-94038009D02*
X120162905Y-94085628D01*
X120162905Y-94085628D02*
X120115286Y-94180866D01*
X120115286Y-94180866D02*
X120115286Y-94371342D01*
X120115286Y-94371342D02*
X120162905Y-94466580D01*
X120162905Y-94466580D02*
X120210524Y-94514200D01*
X120210524Y-94514200D02*
X120305762Y-94561819D01*
X120305762Y-94561819D02*
X120496238Y-94561819D01*
X120496238Y-94561819D02*
X120591476Y-94514200D01*
X120591476Y-94514200D02*
X120639095Y-94466580D01*
X120639095Y-94466580D02*
X120686714Y-94371342D01*
X120686714Y-94371342D02*
X120686714Y-94180866D01*
X120686714Y-94180866D02*
X120639095Y-94085628D01*
X120639095Y-94085628D02*
X120591476Y-94038009D01*
X120591476Y-94038009D02*
X120496238Y-93990390D01*
X143914333Y-98846819D02*
X143581000Y-98370628D01*
X143342905Y-98846819D02*
X143342905Y-97846819D01*
X143342905Y-97846819D02*
X143723857Y-97846819D01*
X143723857Y-97846819D02*
X143819095Y-97894438D01*
X143819095Y-97894438D02*
X143866714Y-97942057D01*
X143866714Y-97942057D02*
X143914333Y-98037295D01*
X143914333Y-98037295D02*
X143914333Y-98180152D01*
X143914333Y-98180152D02*
X143866714Y-98275390D01*
X143866714Y-98275390D02*
X143819095Y-98323009D01*
X143819095Y-98323009D02*
X143723857Y-98370628D01*
X143723857Y-98370628D02*
X143342905Y-98370628D01*
X144295286Y-97942057D02*
X144342905Y-97894438D01*
X144342905Y-97894438D02*
X144438143Y-97846819D01*
X144438143Y-97846819D02*
X144676238Y-97846819D01*
X144676238Y-97846819D02*
X144771476Y-97894438D01*
X144771476Y-97894438D02*
X144819095Y-97942057D01*
X144819095Y-97942057D02*
X144866714Y-98037295D01*
X144866714Y-98037295D02*
X144866714Y-98132533D01*
X144866714Y-98132533D02*
X144819095Y-98275390D01*
X144819095Y-98275390D02*
X144247667Y-98846819D01*
X144247667Y-98846819D02*
X144866714Y-98846819D01*
X169277009Y-115133190D02*
X169324628Y-114990333D01*
X169324628Y-114990333D02*
X169372247Y-114942714D01*
X169372247Y-114942714D02*
X169467485Y-114895095D01*
X169467485Y-114895095D02*
X169610342Y-114895095D01*
X169610342Y-114895095D02*
X169705580Y-114942714D01*
X169705580Y-114942714D02*
X169753200Y-114990333D01*
X169753200Y-114990333D02*
X169800819Y-115085571D01*
X169800819Y-115085571D02*
X169800819Y-115466523D01*
X169800819Y-115466523D02*
X168800819Y-115466523D01*
X168800819Y-115466523D02*
X168800819Y-115133190D01*
X168800819Y-115133190D02*
X168848438Y-115037952D01*
X168848438Y-115037952D02*
X168896057Y-114990333D01*
X168896057Y-114990333D02*
X168991295Y-114942714D01*
X168991295Y-114942714D02*
X169086533Y-114942714D01*
X169086533Y-114942714D02*
X169181771Y-114990333D01*
X169181771Y-114990333D02*
X169229390Y-115037952D01*
X169229390Y-115037952D02*
X169277009Y-115133190D01*
X169277009Y-115133190D02*
X169277009Y-115466523D01*
X169515104Y-114514142D02*
X169515104Y-114037952D01*
X169800819Y-114609380D02*
X168800819Y-114276047D01*
X168800819Y-114276047D02*
X169800819Y-113942714D01*
X168800819Y-113752237D02*
X168800819Y-113180809D01*
X169800819Y-113466523D02*
X168800819Y-113466523D01*
X169419866Y-112847475D02*
X169419866Y-112085571D01*
X169419866Y-111609380D02*
X169419866Y-110847476D01*
X169800819Y-111228428D02*
X169038914Y-111228428D01*
X156424333Y-88211819D02*
X156091000Y-87735628D01*
X155852905Y-88211819D02*
X155852905Y-87211819D01*
X155852905Y-87211819D02*
X156233857Y-87211819D01*
X156233857Y-87211819D02*
X156329095Y-87259438D01*
X156329095Y-87259438D02*
X156376714Y-87307057D01*
X156376714Y-87307057D02*
X156424333Y-87402295D01*
X156424333Y-87402295D02*
X156424333Y-87545152D01*
X156424333Y-87545152D02*
X156376714Y-87640390D01*
X156376714Y-87640390D02*
X156329095Y-87688009D01*
X156329095Y-87688009D02*
X156233857Y-87735628D01*
X156233857Y-87735628D02*
X155852905Y-87735628D01*
X157329095Y-87211819D02*
X156852905Y-87211819D01*
X156852905Y-87211819D02*
X156805286Y-87688009D01*
X156805286Y-87688009D02*
X156852905Y-87640390D01*
X156852905Y-87640390D02*
X156948143Y-87592771D01*
X156948143Y-87592771D02*
X157186238Y-87592771D01*
X157186238Y-87592771D02*
X157281476Y-87640390D01*
X157281476Y-87640390D02*
X157329095Y-87688009D01*
X157329095Y-87688009D02*
X157376714Y-87783247D01*
X157376714Y-87783247D02*
X157376714Y-88021342D01*
X157376714Y-88021342D02*
X157329095Y-88116580D01*
X157329095Y-88116580D02*
X157281476Y-88164200D01*
X157281476Y-88164200D02*
X157186238Y-88211819D01*
X157186238Y-88211819D02*
X156948143Y-88211819D01*
X156948143Y-88211819D02*
X156852905Y-88164200D01*
X156852905Y-88164200D02*
X156805286Y-88116580D01*
X147269295Y-94734419D02*
X147269295Y-95543942D01*
X147269295Y-95543942D02*
X147316914Y-95639180D01*
X147316914Y-95639180D02*
X147364533Y-95686800D01*
X147364533Y-95686800D02*
X147459771Y-95734419D01*
X147459771Y-95734419D02*
X147650247Y-95734419D01*
X147650247Y-95734419D02*
X147745485Y-95686800D01*
X147745485Y-95686800D02*
X147793104Y-95639180D01*
X147793104Y-95639180D02*
X147840723Y-95543942D01*
X147840723Y-95543942D02*
X147840723Y-94734419D01*
X148269295Y-94829657D02*
X148316914Y-94782038D01*
X148316914Y-94782038D02*
X148412152Y-94734419D01*
X148412152Y-94734419D02*
X148650247Y-94734419D01*
X148650247Y-94734419D02*
X148745485Y-94782038D01*
X148745485Y-94782038D02*
X148793104Y-94829657D01*
X148793104Y-94829657D02*
X148840723Y-94924895D01*
X148840723Y-94924895D02*
X148840723Y-95020133D01*
X148840723Y-95020133D02*
X148793104Y-95162990D01*
X148793104Y-95162990D02*
X148221676Y-95734419D01*
X148221676Y-95734419D02*
X148840723Y-95734419D01*
X130966406Y-86817576D02*
X131538826Y-87389996D01*
X131538826Y-87389996D02*
X131639841Y-87423668D01*
X131639841Y-87423668D02*
X131707185Y-87423668D01*
X131707185Y-87423668D02*
X131808200Y-87389996D01*
X131808200Y-87389996D02*
X131942887Y-87255309D01*
X131942887Y-87255309D02*
X131976559Y-87154294D01*
X131976559Y-87154294D02*
X131976559Y-87086950D01*
X131976559Y-87086950D02*
X131942887Y-86985935D01*
X131942887Y-86985935D02*
X131370467Y-86413515D01*
X132784681Y-86413515D02*
X132380620Y-86817576D01*
X132582650Y-86615546D02*
X131875544Y-85908439D01*
X131875544Y-85908439D02*
X131909215Y-86076798D01*
X131909215Y-86076798D02*
X131909215Y-86211485D01*
X131909215Y-86211485D02*
X131875544Y-86312500D01*
X125963819Y-83033666D02*
X125487628Y-83366999D01*
X125963819Y-83605094D02*
X124963819Y-83605094D01*
X124963819Y-83605094D02*
X124963819Y-83224142D01*
X124963819Y-83224142D02*
X125011438Y-83128904D01*
X125011438Y-83128904D02*
X125059057Y-83081285D01*
X125059057Y-83081285D02*
X125154295Y-83033666D01*
X125154295Y-83033666D02*
X125297152Y-83033666D01*
X125297152Y-83033666D02*
X125392390Y-83081285D01*
X125392390Y-83081285D02*
X125440009Y-83128904D01*
X125440009Y-83128904D02*
X125487628Y-83224142D01*
X125487628Y-83224142D02*
X125487628Y-83605094D01*
X125297152Y-82176523D02*
X125963819Y-82176523D01*
X124916200Y-82414618D02*
X125630485Y-82652713D01*
X125630485Y-82652713D02*
X125630485Y-82033666D01*
X131854863Y-99497395D02*
X131787519Y-99497395D01*
X131787519Y-99497395D02*
X131652832Y-99430051D01*
X131652832Y-99430051D02*
X131585489Y-99362708D01*
X131585489Y-99362708D02*
X131518145Y-99228021D01*
X131518145Y-99228021D02*
X131518145Y-99093334D01*
X131518145Y-99093334D02*
X131551817Y-98992319D01*
X131551817Y-98992319D02*
X131652832Y-98823960D01*
X131652832Y-98823960D02*
X131753847Y-98722945D01*
X131753847Y-98722945D02*
X131922206Y-98621929D01*
X131922206Y-98621929D02*
X132023221Y-98588258D01*
X132023221Y-98588258D02*
X132157908Y-98588258D01*
X132157908Y-98588258D02*
X132292595Y-98655601D01*
X132292595Y-98655601D02*
X132359939Y-98722945D01*
X132359939Y-98722945D02*
X132427282Y-98857632D01*
X132427282Y-98857632D02*
X132427282Y-98924975D01*
X133134389Y-99497395D02*
X132797672Y-99160677D01*
X132797672Y-99160677D02*
X132427282Y-99463723D01*
X132427282Y-99463723D02*
X132494626Y-99463723D01*
X132494626Y-99463723D02*
X132595641Y-99497395D01*
X132595641Y-99497395D02*
X132764000Y-99665754D01*
X132764000Y-99665754D02*
X132797672Y-99766769D01*
X132797672Y-99766769D02*
X132797672Y-99834112D01*
X132797672Y-99834112D02*
X132764000Y-99935128D01*
X132764000Y-99935128D02*
X132595641Y-100103486D01*
X132595641Y-100103486D02*
X132494626Y-100137158D01*
X132494626Y-100137158D02*
X132427282Y-100137158D01*
X132427282Y-100137158D02*
X132326267Y-100103486D01*
X132326267Y-100103486D02*
X132157908Y-99935128D01*
X132157908Y-99935128D02*
X132124237Y-99834112D01*
X132124237Y-99834112D02*
X132124237Y-99766769D01*
X156424333Y-93926819D02*
X156091000Y-93450628D01*
X155852905Y-93926819D02*
X155852905Y-92926819D01*
X155852905Y-92926819D02*
X156233857Y-92926819D01*
X156233857Y-92926819D02*
X156329095Y-92974438D01*
X156329095Y-92974438D02*
X156376714Y-93022057D01*
X156376714Y-93022057D02*
X156424333Y-93117295D01*
X156424333Y-93117295D02*
X156424333Y-93260152D01*
X156424333Y-93260152D02*
X156376714Y-93355390D01*
X156376714Y-93355390D02*
X156329095Y-93403009D01*
X156329095Y-93403009D02*
X156233857Y-93450628D01*
X156233857Y-93450628D02*
X155852905Y-93450628D01*
X157281476Y-92926819D02*
X157091000Y-92926819D01*
X157091000Y-92926819D02*
X156995762Y-92974438D01*
X156995762Y-92974438D02*
X156948143Y-93022057D01*
X156948143Y-93022057D02*
X156852905Y-93164914D01*
X156852905Y-93164914D02*
X156805286Y-93355390D01*
X156805286Y-93355390D02*
X156805286Y-93736342D01*
X156805286Y-93736342D02*
X156852905Y-93831580D01*
X156852905Y-93831580D02*
X156900524Y-93879200D01*
X156900524Y-93879200D02*
X156995762Y-93926819D01*
X156995762Y-93926819D02*
X157186238Y-93926819D01*
X157186238Y-93926819D02*
X157281476Y-93879200D01*
X157281476Y-93879200D02*
X157329095Y-93831580D01*
X157329095Y-93831580D02*
X157376714Y-93736342D01*
X157376714Y-93736342D02*
X157376714Y-93498247D01*
X157376714Y-93498247D02*
X157329095Y-93403009D01*
X157329095Y-93403009D02*
X157281476Y-93355390D01*
X157281476Y-93355390D02*
X157186238Y-93307771D01*
X157186238Y-93307771D02*
X156995762Y-93307771D01*
X156995762Y-93307771D02*
X156900524Y-93355390D01*
X156900524Y-93355390D02*
X156852905Y-93403009D01*
X156852905Y-93403009D02*
X156805286Y-93498247D01*
X127254095Y-100546819D02*
X127254095Y-101356342D01*
X127254095Y-101356342D02*
X127301714Y-101451580D01*
X127301714Y-101451580D02*
X127349333Y-101499200D01*
X127349333Y-101499200D02*
X127444571Y-101546819D01*
X127444571Y-101546819D02*
X127635047Y-101546819D01*
X127635047Y-101546819D02*
X127730285Y-101499200D01*
X127730285Y-101499200D02*
X127777904Y-101451580D01*
X127777904Y-101451580D02*
X127825523Y-101356342D01*
X127825523Y-101356342D02*
X127825523Y-100546819D01*
X128206476Y-100546819D02*
X128825523Y-100546819D01*
X128825523Y-100546819D02*
X128492190Y-100927771D01*
X128492190Y-100927771D02*
X128635047Y-100927771D01*
X128635047Y-100927771D02*
X128730285Y-100975390D01*
X128730285Y-100975390D02*
X128777904Y-101023009D01*
X128777904Y-101023009D02*
X128825523Y-101118247D01*
X128825523Y-101118247D02*
X128825523Y-101356342D01*
X128825523Y-101356342D02*
X128777904Y-101451580D01*
X128777904Y-101451580D02*
X128730285Y-101499200D01*
X128730285Y-101499200D02*
X128635047Y-101546819D01*
X128635047Y-101546819D02*
X128349333Y-101546819D01*
X128349333Y-101546819D02*
X128254095Y-101499200D01*
X128254095Y-101499200D02*
X128206476Y-101451580D01*
X142844403Y-96932120D02*
X142844403Y-96999464D01*
X142844403Y-96999464D02*
X142777059Y-97134151D01*
X142777059Y-97134151D02*
X142709716Y-97201494D01*
X142709716Y-97201494D02*
X142575029Y-97268838D01*
X142575029Y-97268838D02*
X142440342Y-97268838D01*
X142440342Y-97268838D02*
X142339327Y-97235166D01*
X142339327Y-97235166D02*
X142170968Y-97134151D01*
X142170968Y-97134151D02*
X142069953Y-97033136D01*
X142069953Y-97033136D02*
X141968937Y-96864777D01*
X141968937Y-96864777D02*
X141935266Y-96763762D01*
X141935266Y-96763762D02*
X141935266Y-96629075D01*
X141935266Y-96629075D02*
X142002609Y-96494388D01*
X142002609Y-96494388D02*
X142069953Y-96427044D01*
X142069953Y-96427044D02*
X142204640Y-96359701D01*
X142204640Y-96359701D02*
X142271983Y-96359701D01*
X142810731Y-95686266D02*
X142676044Y-95820953D01*
X142676044Y-95820953D02*
X142642372Y-95921968D01*
X142642372Y-95921968D02*
X142642372Y-95989311D01*
X142642372Y-95989311D02*
X142676044Y-96157670D01*
X142676044Y-96157670D02*
X142777059Y-96326029D01*
X142777059Y-96326029D02*
X143046433Y-96595403D01*
X143046433Y-96595403D02*
X143147449Y-96629075D01*
X143147449Y-96629075D02*
X143214792Y-96629075D01*
X143214792Y-96629075D02*
X143315807Y-96595403D01*
X143315807Y-96595403D02*
X143450494Y-96460716D01*
X143450494Y-96460716D02*
X143484166Y-96359701D01*
X143484166Y-96359701D02*
X143484166Y-96292357D01*
X143484166Y-96292357D02*
X143450494Y-96191342D01*
X143450494Y-96191342D02*
X143282136Y-96022983D01*
X143282136Y-96022983D02*
X143181120Y-95989311D01*
X143181120Y-95989311D02*
X143113777Y-95989311D01*
X143113777Y-95989311D02*
X143012762Y-96022983D01*
X143012762Y-96022983D02*
X142878075Y-96157670D01*
X142878075Y-96157670D02*
X142844403Y-96258685D01*
X142844403Y-96258685D02*
X142844403Y-96326029D01*
X142844403Y-96326029D02*
X142878075Y-96427044D01*
X140104333Y-98846819D02*
X139771000Y-98370628D01*
X139532905Y-98846819D02*
X139532905Y-97846819D01*
X139532905Y-97846819D02*
X139913857Y-97846819D01*
X139913857Y-97846819D02*
X140009095Y-97894438D01*
X140009095Y-97894438D02*
X140056714Y-97942057D01*
X140056714Y-97942057D02*
X140104333Y-98037295D01*
X140104333Y-98037295D02*
X140104333Y-98180152D01*
X140104333Y-98180152D02*
X140056714Y-98275390D01*
X140056714Y-98275390D02*
X140009095Y-98323009D01*
X140009095Y-98323009D02*
X139913857Y-98370628D01*
X139913857Y-98370628D02*
X139532905Y-98370628D01*
X141056714Y-98846819D02*
X140485286Y-98846819D01*
X140771000Y-98846819D02*
X140771000Y-97846819D01*
X140771000Y-97846819D02*
X140675762Y-97989676D01*
X140675762Y-97989676D02*
X140580524Y-98084914D01*
X140580524Y-98084914D02*
X140485286Y-98132533D01*
X149312666Y-67901819D02*
X149312666Y-68616104D01*
X149312666Y-68616104D02*
X149265047Y-68758961D01*
X149265047Y-68758961D02*
X149169809Y-68854200D01*
X149169809Y-68854200D02*
X149026952Y-68901819D01*
X149026952Y-68901819D02*
X148931714Y-68901819D01*
X149836476Y-68901819D02*
X150026952Y-68901819D01*
X150026952Y-68901819D02*
X150122190Y-68854200D01*
X150122190Y-68854200D02*
X150169809Y-68806580D01*
X150169809Y-68806580D02*
X150265047Y-68663723D01*
X150265047Y-68663723D02*
X150312666Y-68473247D01*
X150312666Y-68473247D02*
X150312666Y-68092295D01*
X150312666Y-68092295D02*
X150265047Y-67997057D01*
X150265047Y-67997057D02*
X150217428Y-67949438D01*
X150217428Y-67949438D02*
X150122190Y-67901819D01*
X150122190Y-67901819D02*
X149931714Y-67901819D01*
X149931714Y-67901819D02*
X149836476Y-67949438D01*
X149836476Y-67949438D02*
X149788857Y-67997057D01*
X149788857Y-67997057D02*
X149741238Y-68092295D01*
X149741238Y-68092295D02*
X149741238Y-68330390D01*
X149741238Y-68330390D02*
X149788857Y-68425628D01*
X149788857Y-68425628D02*
X149836476Y-68473247D01*
X149836476Y-68473247D02*
X149931714Y-68520866D01*
X149931714Y-68520866D02*
X150122190Y-68520866D01*
X150122190Y-68520866D02*
X150217428Y-68473247D01*
X150217428Y-68473247D02*
X150265047Y-68425628D01*
X150265047Y-68425628D02*
X150312666Y-68330390D01*
X147812667Y-75101819D02*
X147812667Y-74101819D01*
X147812667Y-74101819D02*
X148146000Y-74816104D01*
X148146000Y-74816104D02*
X148479333Y-74101819D01*
X148479333Y-74101819D02*
X148479333Y-75101819D01*
X148955524Y-74578009D02*
X149288857Y-74578009D01*
X149431714Y-75101819D02*
X148955524Y-75101819D01*
X148955524Y-75101819D02*
X148955524Y-74101819D01*
X148955524Y-74101819D02*
X149431714Y-74101819D01*
X149860286Y-75101819D02*
X149860286Y-74101819D01*
X149860286Y-74101819D02*
X150431714Y-75101819D01*
X150431714Y-75101819D02*
X150431714Y-74101819D01*
X150907905Y-74101819D02*
X150907905Y-74911342D01*
X150907905Y-74911342D02*
X150955524Y-75006580D01*
X150955524Y-75006580D02*
X151003143Y-75054200D01*
X151003143Y-75054200D02*
X151098381Y-75101819D01*
X151098381Y-75101819D02*
X151288857Y-75101819D01*
X151288857Y-75101819D02*
X151384095Y-75054200D01*
X151384095Y-75054200D02*
X151431714Y-75006580D01*
X151431714Y-75006580D02*
X151479333Y-74911342D01*
X151479333Y-74911342D02*
X151479333Y-74101819D01*
X119734333Y-88591580D02*
X119686714Y-88639200D01*
X119686714Y-88639200D02*
X119543857Y-88686819D01*
X119543857Y-88686819D02*
X119448619Y-88686819D01*
X119448619Y-88686819D02*
X119305762Y-88639200D01*
X119305762Y-88639200D02*
X119210524Y-88543961D01*
X119210524Y-88543961D02*
X119162905Y-88448723D01*
X119162905Y-88448723D02*
X119115286Y-88258247D01*
X119115286Y-88258247D02*
X119115286Y-88115390D01*
X119115286Y-88115390D02*
X119162905Y-87924914D01*
X119162905Y-87924914D02*
X119210524Y-87829676D01*
X119210524Y-87829676D02*
X119305762Y-87734438D01*
X119305762Y-87734438D02*
X119448619Y-87686819D01*
X119448619Y-87686819D02*
X119543857Y-87686819D01*
X119543857Y-87686819D02*
X119686714Y-87734438D01*
X119686714Y-87734438D02*
X119734333Y-87782057D01*
X120067667Y-87686819D02*
X120734333Y-87686819D01*
X120734333Y-87686819D02*
X120305762Y-88686819D01*
X158703261Y-84992057D02*
X158608023Y-84944438D01*
X158608023Y-84944438D02*
X158512785Y-84849200D01*
X158512785Y-84849200D02*
X158369928Y-84706342D01*
X158369928Y-84706342D02*
X158274690Y-84658723D01*
X158274690Y-84658723D02*
X158179452Y-84658723D01*
X158227071Y-84896819D02*
X158131833Y-84849200D01*
X158131833Y-84849200D02*
X158036595Y-84753961D01*
X158036595Y-84753961D02*
X157988976Y-84563485D01*
X157988976Y-84563485D02*
X157988976Y-84230152D01*
X157988976Y-84230152D02*
X158036595Y-84039676D01*
X158036595Y-84039676D02*
X158131833Y-83944438D01*
X158131833Y-83944438D02*
X158227071Y-83896819D01*
X158227071Y-83896819D02*
X158417547Y-83896819D01*
X158417547Y-83896819D02*
X158512785Y-83944438D01*
X158512785Y-83944438D02*
X158608023Y-84039676D01*
X158608023Y-84039676D02*
X158655642Y-84230152D01*
X158655642Y-84230152D02*
X158655642Y-84563485D01*
X158655642Y-84563485D02*
X158608023Y-84753961D01*
X158608023Y-84753961D02*
X158512785Y-84849200D01*
X158512785Y-84849200D02*
X158417547Y-84896819D01*
X158417547Y-84896819D02*
X158227071Y-84896819D01*
X159036595Y-83992057D02*
X159084214Y-83944438D01*
X159084214Y-83944438D02*
X159179452Y-83896819D01*
X159179452Y-83896819D02*
X159417547Y-83896819D01*
X159417547Y-83896819D02*
X159512785Y-83944438D01*
X159512785Y-83944438D02*
X159560404Y-83992057D01*
X159560404Y-83992057D02*
X159608023Y-84087295D01*
X159608023Y-84087295D02*
X159608023Y-84182533D01*
X159608023Y-84182533D02*
X159560404Y-84325390D01*
X159560404Y-84325390D02*
X158988976Y-84896819D01*
X158988976Y-84896819D02*
X159608023Y-84896819D01*
X119784333Y-85671819D02*
X119451000Y-85195628D01*
X119212905Y-85671819D02*
X119212905Y-84671819D01*
X119212905Y-84671819D02*
X119593857Y-84671819D01*
X119593857Y-84671819D02*
X119689095Y-84719438D01*
X119689095Y-84719438D02*
X119736714Y-84767057D01*
X119736714Y-84767057D02*
X119784333Y-84862295D01*
X119784333Y-84862295D02*
X119784333Y-85005152D01*
X119784333Y-85005152D02*
X119736714Y-85100390D01*
X119736714Y-85100390D02*
X119689095Y-85148009D01*
X119689095Y-85148009D02*
X119593857Y-85195628D01*
X119593857Y-85195628D02*
X119212905Y-85195628D01*
X120117667Y-84671819D02*
X120736714Y-84671819D01*
X120736714Y-84671819D02*
X120403381Y-85052771D01*
X120403381Y-85052771D02*
X120546238Y-85052771D01*
X120546238Y-85052771D02*
X120641476Y-85100390D01*
X120641476Y-85100390D02*
X120689095Y-85148009D01*
X120689095Y-85148009D02*
X120736714Y-85243247D01*
X120736714Y-85243247D02*
X120736714Y-85481342D01*
X120736714Y-85481342D02*
X120689095Y-85576580D01*
X120689095Y-85576580D02*
X120641476Y-85624200D01*
X120641476Y-85624200D02*
X120546238Y-85671819D01*
X120546238Y-85671819D02*
X120260524Y-85671819D01*
X120260524Y-85671819D02*
X120165286Y-85624200D01*
X120165286Y-85624200D02*
X120117667Y-85576580D01*
X115193142Y-95736580D02*
X115145523Y-95784200D01*
X115145523Y-95784200D02*
X115002666Y-95831819D01*
X115002666Y-95831819D02*
X114907428Y-95831819D01*
X114907428Y-95831819D02*
X114764571Y-95784200D01*
X114764571Y-95784200D02*
X114669333Y-95688961D01*
X114669333Y-95688961D02*
X114621714Y-95593723D01*
X114621714Y-95593723D02*
X114574095Y-95403247D01*
X114574095Y-95403247D02*
X114574095Y-95260390D01*
X114574095Y-95260390D02*
X114621714Y-95069914D01*
X114621714Y-95069914D02*
X114669333Y-94974676D01*
X114669333Y-94974676D02*
X114764571Y-94879438D01*
X114764571Y-94879438D02*
X114907428Y-94831819D01*
X114907428Y-94831819D02*
X115002666Y-94831819D01*
X115002666Y-94831819D02*
X115145523Y-94879438D01*
X115145523Y-94879438D02*
X115193142Y-94927057D01*
X116145523Y-95831819D02*
X115574095Y-95831819D01*
X115859809Y-95831819D02*
X115859809Y-94831819D01*
X115859809Y-94831819D02*
X115764571Y-94974676D01*
X115764571Y-94974676D02*
X115669333Y-95069914D01*
X115669333Y-95069914D02*
X115574095Y-95117533D01*
X117097904Y-95831819D02*
X116526476Y-95831819D01*
X116812190Y-95831819D02*
X116812190Y-94831819D01*
X116812190Y-94831819D02*
X116716952Y-94974676D01*
X116716952Y-94974676D02*
X116621714Y-95069914D01*
X116621714Y-95069914D02*
X116526476Y-95117533D01*
X158703261Y-76737057D02*
X158608023Y-76689438D01*
X158608023Y-76689438D02*
X158512785Y-76594200D01*
X158512785Y-76594200D02*
X158369928Y-76451342D01*
X158369928Y-76451342D02*
X158274690Y-76403723D01*
X158274690Y-76403723D02*
X158179452Y-76403723D01*
X158227071Y-76641819D02*
X158131833Y-76594200D01*
X158131833Y-76594200D02*
X158036595Y-76498961D01*
X158036595Y-76498961D02*
X157988976Y-76308485D01*
X157988976Y-76308485D02*
X157988976Y-75975152D01*
X157988976Y-75975152D02*
X158036595Y-75784676D01*
X158036595Y-75784676D02*
X158131833Y-75689438D01*
X158131833Y-75689438D02*
X158227071Y-75641819D01*
X158227071Y-75641819D02*
X158417547Y-75641819D01*
X158417547Y-75641819D02*
X158512785Y-75689438D01*
X158512785Y-75689438D02*
X158608023Y-75784676D01*
X158608023Y-75784676D02*
X158655642Y-75975152D01*
X158655642Y-75975152D02*
X158655642Y-76308485D01*
X158655642Y-76308485D02*
X158608023Y-76498961D01*
X158608023Y-76498961D02*
X158512785Y-76594200D01*
X158512785Y-76594200D02*
X158417547Y-76641819D01*
X158417547Y-76641819D02*
X158227071Y-76641819D01*
X158988976Y-75641819D02*
X159608023Y-75641819D01*
X159608023Y-75641819D02*
X159274690Y-76022771D01*
X159274690Y-76022771D02*
X159417547Y-76022771D01*
X159417547Y-76022771D02*
X159512785Y-76070390D01*
X159512785Y-76070390D02*
X159560404Y-76118009D01*
X159560404Y-76118009D02*
X159608023Y-76213247D01*
X159608023Y-76213247D02*
X159608023Y-76451342D01*
X159608023Y-76451342D02*
X159560404Y-76546580D01*
X159560404Y-76546580D02*
X159512785Y-76594200D01*
X159512785Y-76594200D02*
X159417547Y-76641819D01*
X159417547Y-76641819D02*
X159131833Y-76641819D01*
X159131833Y-76641819D02*
X159036595Y-76594200D01*
X159036595Y-76594200D02*
X158988976Y-76546580D01*
X134874666Y-112230819D02*
X134874666Y-112945104D01*
X134874666Y-112945104D02*
X134827047Y-113087961D01*
X134827047Y-113087961D02*
X134731809Y-113183200D01*
X134731809Y-113183200D02*
X134588952Y-113230819D01*
X134588952Y-113230819D02*
X134493714Y-113230819D01*
X135303238Y-112326057D02*
X135350857Y-112278438D01*
X135350857Y-112278438D02*
X135446095Y-112230819D01*
X135446095Y-112230819D02*
X135684190Y-112230819D01*
X135684190Y-112230819D02*
X135779428Y-112278438D01*
X135779428Y-112278438D02*
X135827047Y-112326057D01*
X135827047Y-112326057D02*
X135874666Y-112421295D01*
X135874666Y-112421295D02*
X135874666Y-112516533D01*
X135874666Y-112516533D02*
X135827047Y-112659390D01*
X135827047Y-112659390D02*
X135255619Y-113230819D01*
X135255619Y-113230819D02*
X135874666Y-113230819D01*
X127385619Y-82340819D02*
X127385619Y-81340819D01*
X127814190Y-81436057D02*
X127861809Y-81388438D01*
X127861809Y-81388438D02*
X127957047Y-81340819D01*
X127957047Y-81340819D02*
X128195142Y-81340819D01*
X128195142Y-81340819D02*
X128290380Y-81388438D01*
X128290380Y-81388438D02*
X128337999Y-81436057D01*
X128337999Y-81436057D02*
X128385618Y-81531295D01*
X128385618Y-81531295D02*
X128385618Y-81626533D01*
X128385618Y-81626533D02*
X128337999Y-81769390D01*
X128337999Y-81769390D02*
X127766571Y-82340819D01*
X127766571Y-82340819D02*
X128385618Y-82340819D01*
X129385618Y-82245580D02*
X129337999Y-82293200D01*
X129337999Y-82293200D02*
X129195142Y-82340819D01*
X129195142Y-82340819D02*
X129099904Y-82340819D01*
X129099904Y-82340819D02*
X128957047Y-82293200D01*
X128957047Y-82293200D02*
X128861809Y-82197961D01*
X128861809Y-82197961D02*
X128814190Y-82102723D01*
X128814190Y-82102723D02*
X128766571Y-81912247D01*
X128766571Y-81912247D02*
X128766571Y-81769390D01*
X128766571Y-81769390D02*
X128814190Y-81578914D01*
X128814190Y-81578914D02*
X128861809Y-81483676D01*
X128861809Y-81483676D02*
X128957047Y-81388438D01*
X128957047Y-81388438D02*
X129099904Y-81340819D01*
X129099904Y-81340819D02*
X129195142Y-81340819D01*
X129195142Y-81340819D02*
X129337999Y-81388438D01*
X129337999Y-81388438D02*
X129385618Y-81436057D01*
X130337999Y-82340819D02*
X129766571Y-82340819D01*
X130052285Y-82340819D02*
X130052285Y-81340819D01*
X130052285Y-81340819D02*
X129957047Y-81483676D01*
X129957047Y-81483676D02*
X129861809Y-81578914D01*
X129861809Y-81578914D02*
X129766571Y-81626533D01*
X150562666Y-76156819D02*
X150562666Y-76871104D01*
X150562666Y-76871104D02*
X150515047Y-77013961D01*
X150515047Y-77013961D02*
X150419809Y-77109200D01*
X150419809Y-77109200D02*
X150276952Y-77156819D01*
X150276952Y-77156819D02*
X150181714Y-77156819D01*
X151181714Y-76585390D02*
X151086476Y-76537771D01*
X151086476Y-76537771D02*
X151038857Y-76490152D01*
X151038857Y-76490152D02*
X150991238Y-76394914D01*
X150991238Y-76394914D02*
X150991238Y-76347295D01*
X150991238Y-76347295D02*
X151038857Y-76252057D01*
X151038857Y-76252057D02*
X151086476Y-76204438D01*
X151086476Y-76204438D02*
X151181714Y-76156819D01*
X151181714Y-76156819D02*
X151372190Y-76156819D01*
X151372190Y-76156819D02*
X151467428Y-76204438D01*
X151467428Y-76204438D02*
X151515047Y-76252057D01*
X151515047Y-76252057D02*
X151562666Y-76347295D01*
X151562666Y-76347295D02*
X151562666Y-76394914D01*
X151562666Y-76394914D02*
X151515047Y-76490152D01*
X151515047Y-76490152D02*
X151467428Y-76537771D01*
X151467428Y-76537771D02*
X151372190Y-76585390D01*
X151372190Y-76585390D02*
X151181714Y-76585390D01*
X151181714Y-76585390D02*
X151086476Y-76633009D01*
X151086476Y-76633009D02*
X151038857Y-76680628D01*
X151038857Y-76680628D02*
X150991238Y-76775866D01*
X150991238Y-76775866D02*
X150991238Y-76966342D01*
X150991238Y-76966342D02*
X151038857Y-77061580D01*
X151038857Y-77061580D02*
X151086476Y-77109200D01*
X151086476Y-77109200D02*
X151181714Y-77156819D01*
X151181714Y-77156819D02*
X151372190Y-77156819D01*
X151372190Y-77156819D02*
X151467428Y-77109200D01*
X151467428Y-77109200D02*
X151515047Y-77061580D01*
X151515047Y-77061580D02*
X151562666Y-76966342D01*
X151562666Y-76966342D02*
X151562666Y-76775866D01*
X151562666Y-76775866D02*
X151515047Y-76680628D01*
X151515047Y-76680628D02*
X151467428Y-76633009D01*
X151467428Y-76633009D02*
X151372190Y-76585390D01*
X148634095Y-82833009D02*
X148776952Y-82880628D01*
X148776952Y-82880628D02*
X148824571Y-82928247D01*
X148824571Y-82928247D02*
X148872190Y-83023485D01*
X148872190Y-83023485D02*
X148872190Y-83166342D01*
X148872190Y-83166342D02*
X148824571Y-83261580D01*
X148824571Y-83261580D02*
X148776952Y-83309200D01*
X148776952Y-83309200D02*
X148681714Y-83356819D01*
X148681714Y-83356819D02*
X148300762Y-83356819D01*
X148300762Y-83356819D02*
X148300762Y-82356819D01*
X148300762Y-82356819D02*
X148634095Y-82356819D01*
X148634095Y-82356819D02*
X148729333Y-82404438D01*
X148729333Y-82404438D02*
X148776952Y-82452057D01*
X148776952Y-82452057D02*
X148824571Y-82547295D01*
X148824571Y-82547295D02*
X148824571Y-82642533D01*
X148824571Y-82642533D02*
X148776952Y-82737771D01*
X148776952Y-82737771D02*
X148729333Y-82785390D01*
X148729333Y-82785390D02*
X148634095Y-82833009D01*
X148634095Y-82833009D02*
X148300762Y-82833009D01*
X149300762Y-82356819D02*
X149300762Y-83166342D01*
X149300762Y-83166342D02*
X149348381Y-83261580D01*
X149348381Y-83261580D02*
X149396000Y-83309200D01*
X149396000Y-83309200D02*
X149491238Y-83356819D01*
X149491238Y-83356819D02*
X149681714Y-83356819D01*
X149681714Y-83356819D02*
X149776952Y-83309200D01*
X149776952Y-83309200D02*
X149824571Y-83261580D01*
X149824571Y-83261580D02*
X149872190Y-83166342D01*
X149872190Y-83166342D02*
X149872190Y-82356819D01*
X150205524Y-82356819D02*
X150776952Y-82356819D01*
X150491238Y-83356819D02*
X150491238Y-82356819D01*
X150967429Y-82356819D02*
X151538857Y-82356819D01*
X151253143Y-83356819D02*
X151253143Y-82356819D01*
X152062667Y-82356819D02*
X152253143Y-82356819D01*
X152253143Y-82356819D02*
X152348381Y-82404438D01*
X152348381Y-82404438D02*
X152443619Y-82499676D01*
X152443619Y-82499676D02*
X152491238Y-82690152D01*
X152491238Y-82690152D02*
X152491238Y-83023485D01*
X152491238Y-83023485D02*
X152443619Y-83213961D01*
X152443619Y-83213961D02*
X152348381Y-83309200D01*
X152348381Y-83309200D02*
X152253143Y-83356819D01*
X152253143Y-83356819D02*
X152062667Y-83356819D01*
X152062667Y-83356819D02*
X151967429Y-83309200D01*
X151967429Y-83309200D02*
X151872191Y-83213961D01*
X151872191Y-83213961D02*
X151824572Y-83023485D01*
X151824572Y-83023485D02*
X151824572Y-82690152D01*
X151824572Y-82690152D02*
X151872191Y-82499676D01*
X151872191Y-82499676D02*
X151967429Y-82404438D01*
X151967429Y-82404438D02*
X152062667Y-82356819D01*
X152919810Y-83356819D02*
X152919810Y-82356819D01*
X152919810Y-82356819D02*
X153491238Y-83356819D01*
X153491238Y-83356819D02*
X153491238Y-82356819D01*
X156495761Y-92117057D02*
X156400523Y-92069438D01*
X156400523Y-92069438D02*
X156305285Y-91974200D01*
X156305285Y-91974200D02*
X156162428Y-91831342D01*
X156162428Y-91831342D02*
X156067190Y-91783723D01*
X156067190Y-91783723D02*
X155971952Y-91783723D01*
X156019571Y-92021819D02*
X155924333Y-91974200D01*
X155924333Y-91974200D02*
X155829095Y-91878961D01*
X155829095Y-91878961D02*
X155781476Y-91688485D01*
X155781476Y-91688485D02*
X155781476Y-91355152D01*
X155781476Y-91355152D02*
X155829095Y-91164676D01*
X155829095Y-91164676D02*
X155924333Y-91069438D01*
X155924333Y-91069438D02*
X156019571Y-91021819D01*
X156019571Y-91021819D02*
X156210047Y-91021819D01*
X156210047Y-91021819D02*
X156305285Y-91069438D01*
X156305285Y-91069438D02*
X156400523Y-91164676D01*
X156400523Y-91164676D02*
X156448142Y-91355152D01*
X156448142Y-91355152D02*
X156448142Y-91688485D01*
X156448142Y-91688485D02*
X156400523Y-91878961D01*
X156400523Y-91878961D02*
X156305285Y-91974200D01*
X156305285Y-91974200D02*
X156210047Y-92021819D01*
X156210047Y-92021819D02*
X156019571Y-92021819D01*
X157400523Y-92021819D02*
X156829095Y-92021819D01*
X157114809Y-92021819D02*
X157114809Y-91021819D01*
X157114809Y-91021819D02*
X157019571Y-91164676D01*
X157019571Y-91164676D02*
X156924333Y-91259914D01*
X156924333Y-91259914D02*
X156829095Y-91307533D01*
X144994333Y-75511819D02*
X144661000Y-75035628D01*
X144422905Y-75511819D02*
X144422905Y-74511819D01*
X144422905Y-74511819D02*
X144803857Y-74511819D01*
X144803857Y-74511819D02*
X144899095Y-74559438D01*
X144899095Y-74559438D02*
X144946714Y-74607057D01*
X144946714Y-74607057D02*
X144994333Y-74702295D01*
X144994333Y-74702295D02*
X144994333Y-74845152D01*
X144994333Y-74845152D02*
X144946714Y-74940390D01*
X144946714Y-74940390D02*
X144899095Y-74988009D01*
X144899095Y-74988009D02*
X144803857Y-75035628D01*
X144803857Y-75035628D02*
X144422905Y-75035628D01*
X145470524Y-75511819D02*
X145661000Y-75511819D01*
X145661000Y-75511819D02*
X145756238Y-75464200D01*
X145756238Y-75464200D02*
X145803857Y-75416580D01*
X145803857Y-75416580D02*
X145899095Y-75273723D01*
X145899095Y-75273723D02*
X145946714Y-75083247D01*
X145946714Y-75083247D02*
X145946714Y-74702295D01*
X145946714Y-74702295D02*
X145899095Y-74607057D01*
X145899095Y-74607057D02*
X145851476Y-74559438D01*
X145851476Y-74559438D02*
X145756238Y-74511819D01*
X145756238Y-74511819D02*
X145565762Y-74511819D01*
X145565762Y-74511819D02*
X145470524Y-74559438D01*
X145470524Y-74559438D02*
X145422905Y-74607057D01*
X145422905Y-74607057D02*
X145375286Y-74702295D01*
X145375286Y-74702295D02*
X145375286Y-74940390D01*
X145375286Y-74940390D02*
X145422905Y-75035628D01*
X145422905Y-75035628D02*
X145470524Y-75083247D01*
X145470524Y-75083247D02*
X145565762Y-75130866D01*
X145565762Y-75130866D02*
X145756238Y-75130866D01*
X145756238Y-75130866D02*
X145851476Y-75083247D01*
X145851476Y-75083247D02*
X145899095Y-75035628D01*
X145899095Y-75035628D02*
X145946714Y-74940390D01*
X128629628Y-91408190D02*
X129105819Y-91408190D01*
X128105819Y-91741523D02*
X128629628Y-91408190D01*
X128629628Y-91408190D02*
X128105819Y-91074857D01*
X129105819Y-90217714D02*
X129105819Y-90789142D01*
X129105819Y-90503428D02*
X128105819Y-90503428D01*
X128105819Y-90503428D02*
X128248676Y-90598666D01*
X128248676Y-90598666D02*
X128343914Y-90693904D01*
X128343914Y-90693904D02*
X128391533Y-90789142D01*
X147534333Y-84941580D02*
X147486714Y-84989200D01*
X147486714Y-84989200D02*
X147343857Y-85036819D01*
X147343857Y-85036819D02*
X147248619Y-85036819D01*
X147248619Y-85036819D02*
X147105762Y-84989200D01*
X147105762Y-84989200D02*
X147010524Y-84893961D01*
X147010524Y-84893961D02*
X146962905Y-84798723D01*
X146962905Y-84798723D02*
X146915286Y-84608247D01*
X146915286Y-84608247D02*
X146915286Y-84465390D01*
X146915286Y-84465390D02*
X146962905Y-84274914D01*
X146962905Y-84274914D02*
X147010524Y-84179676D01*
X147010524Y-84179676D02*
X147105762Y-84084438D01*
X147105762Y-84084438D02*
X147248619Y-84036819D01*
X147248619Y-84036819D02*
X147343857Y-84036819D01*
X147343857Y-84036819D02*
X147486714Y-84084438D01*
X147486714Y-84084438D02*
X147534333Y-84132057D01*
X148486714Y-85036819D02*
X147915286Y-85036819D01*
X148201000Y-85036819D02*
X148201000Y-84036819D01*
X148201000Y-84036819D02*
X148105762Y-84179676D01*
X148105762Y-84179676D02*
X148010524Y-84274914D01*
X148010524Y-84274914D02*
X147915286Y-84322533D01*
X133305879Y-98227396D02*
X133238535Y-98227396D01*
X133238535Y-98227396D02*
X133103848Y-98160052D01*
X133103848Y-98160052D02*
X133036505Y-98092709D01*
X133036505Y-98092709D02*
X132969161Y-97958022D01*
X132969161Y-97958022D02*
X132969161Y-97823335D01*
X132969161Y-97823335D02*
X133002833Y-97722320D01*
X133002833Y-97722320D02*
X133103848Y-97553961D01*
X133103848Y-97553961D02*
X133204863Y-97452946D01*
X133204863Y-97452946D02*
X133373222Y-97351930D01*
X133373222Y-97351930D02*
X133474237Y-97318259D01*
X133474237Y-97318259D02*
X133608924Y-97318259D01*
X133608924Y-97318259D02*
X133743611Y-97385602D01*
X133743611Y-97385602D02*
X133810955Y-97452946D01*
X133810955Y-97452946D02*
X133878298Y-97587633D01*
X133878298Y-97587633D02*
X133878298Y-97654976D01*
X134316031Y-98429426D02*
X133844627Y-98900831D01*
X134417046Y-97991694D02*
X133743611Y-98328411D01*
X133743611Y-98328411D02*
X134181344Y-98766144D01*
X158774333Y-70271819D02*
X158441000Y-69795628D01*
X158202905Y-70271819D02*
X158202905Y-69271819D01*
X158202905Y-69271819D02*
X158583857Y-69271819D01*
X158583857Y-69271819D02*
X158679095Y-69319438D01*
X158679095Y-69319438D02*
X158726714Y-69367057D01*
X158726714Y-69367057D02*
X158774333Y-69462295D01*
X158774333Y-69462295D02*
X158774333Y-69605152D01*
X158774333Y-69605152D02*
X158726714Y-69700390D01*
X158726714Y-69700390D02*
X158679095Y-69748009D01*
X158679095Y-69748009D02*
X158583857Y-69795628D01*
X158583857Y-69795628D02*
X158202905Y-69795628D01*
X159345762Y-69700390D02*
X159250524Y-69652771D01*
X159250524Y-69652771D02*
X159202905Y-69605152D01*
X159202905Y-69605152D02*
X159155286Y-69509914D01*
X159155286Y-69509914D02*
X159155286Y-69462295D01*
X159155286Y-69462295D02*
X159202905Y-69367057D01*
X159202905Y-69367057D02*
X159250524Y-69319438D01*
X159250524Y-69319438D02*
X159345762Y-69271819D01*
X159345762Y-69271819D02*
X159536238Y-69271819D01*
X159536238Y-69271819D02*
X159631476Y-69319438D01*
X159631476Y-69319438D02*
X159679095Y-69367057D01*
X159679095Y-69367057D02*
X159726714Y-69462295D01*
X159726714Y-69462295D02*
X159726714Y-69509914D01*
X159726714Y-69509914D02*
X159679095Y-69605152D01*
X159679095Y-69605152D02*
X159631476Y-69652771D01*
X159631476Y-69652771D02*
X159536238Y-69700390D01*
X159536238Y-69700390D02*
X159345762Y-69700390D01*
X159345762Y-69700390D02*
X159250524Y-69748009D01*
X159250524Y-69748009D02*
X159202905Y-69795628D01*
X159202905Y-69795628D02*
X159155286Y-69890866D01*
X159155286Y-69890866D02*
X159155286Y-70081342D01*
X159155286Y-70081342D02*
X159202905Y-70176580D01*
X159202905Y-70176580D02*
X159250524Y-70224200D01*
X159250524Y-70224200D02*
X159345762Y-70271819D01*
X159345762Y-70271819D02*
X159536238Y-70271819D01*
X159536238Y-70271819D02*
X159631476Y-70224200D01*
X159631476Y-70224200D02*
X159679095Y-70176580D01*
X159679095Y-70176580D02*
X159726714Y-70081342D01*
X159726714Y-70081342D02*
X159726714Y-69890866D01*
X159726714Y-69890866D02*
X159679095Y-69795628D01*
X159679095Y-69795628D02*
X159631476Y-69748009D01*
X159631476Y-69748009D02*
X159536238Y-69700390D01*
X121009580Y-83224666D02*
X121057200Y-83272285D01*
X121057200Y-83272285D02*
X121104819Y-83415142D01*
X121104819Y-83415142D02*
X121104819Y-83510380D01*
X121104819Y-83510380D02*
X121057200Y-83653237D01*
X121057200Y-83653237D02*
X120961961Y-83748475D01*
X120961961Y-83748475D02*
X120866723Y-83796094D01*
X120866723Y-83796094D02*
X120676247Y-83843713D01*
X120676247Y-83843713D02*
X120533390Y-83843713D01*
X120533390Y-83843713D02*
X120342914Y-83796094D01*
X120342914Y-83796094D02*
X120247676Y-83748475D01*
X120247676Y-83748475D02*
X120152438Y-83653237D01*
X120152438Y-83653237D02*
X120104819Y-83510380D01*
X120104819Y-83510380D02*
X120104819Y-83415142D01*
X120104819Y-83415142D02*
X120152438Y-83272285D01*
X120152438Y-83272285D02*
X120200057Y-83224666D01*
X121104819Y-82748475D02*
X121104819Y-82557999D01*
X121104819Y-82557999D02*
X121057200Y-82462761D01*
X121057200Y-82462761D02*
X121009580Y-82415142D01*
X121009580Y-82415142D02*
X120866723Y-82319904D01*
X120866723Y-82319904D02*
X120676247Y-82272285D01*
X120676247Y-82272285D02*
X120295295Y-82272285D01*
X120295295Y-82272285D02*
X120200057Y-82319904D01*
X120200057Y-82319904D02*
X120152438Y-82367523D01*
X120152438Y-82367523D02*
X120104819Y-82462761D01*
X120104819Y-82462761D02*
X120104819Y-82653237D01*
X120104819Y-82653237D02*
X120152438Y-82748475D01*
X120152438Y-82748475D02*
X120200057Y-82796094D01*
X120200057Y-82796094D02*
X120295295Y-82843713D01*
X120295295Y-82843713D02*
X120533390Y-82843713D01*
X120533390Y-82843713D02*
X120628628Y-82796094D01*
X120628628Y-82796094D02*
X120676247Y-82748475D01*
X120676247Y-82748475D02*
X120723866Y-82653237D01*
X120723866Y-82653237D02*
X120723866Y-82462761D01*
X120723866Y-82462761D02*
X120676247Y-82367523D01*
X120676247Y-82367523D02*
X120628628Y-82319904D01*
X120628628Y-82319904D02*
X120533390Y-82272285D01*
X158774333Y-78526819D02*
X158441000Y-78050628D01*
X158202905Y-78526819D02*
X158202905Y-77526819D01*
X158202905Y-77526819D02*
X158583857Y-77526819D01*
X158583857Y-77526819D02*
X158679095Y-77574438D01*
X158679095Y-77574438D02*
X158726714Y-77622057D01*
X158726714Y-77622057D02*
X158774333Y-77717295D01*
X158774333Y-77717295D02*
X158774333Y-77860152D01*
X158774333Y-77860152D02*
X158726714Y-77955390D01*
X158726714Y-77955390D02*
X158679095Y-78003009D01*
X158679095Y-78003009D02*
X158583857Y-78050628D01*
X158583857Y-78050628D02*
X158202905Y-78050628D01*
X159107667Y-77526819D02*
X159774333Y-77526819D01*
X159774333Y-77526819D02*
X159345762Y-78526819D01*
D12*
%TO.C,J6*%
X161346000Y-85750000D02*
X162108000Y-85750000D01*
X162108000Y-85750000D02*
X168346000Y-85750000D01*
X166846000Y-85750000D02*
X166846000Y-78750000D01*
X161346000Y-78750000D02*
X161346000Y-85750000D01*
X162108000Y-78750000D02*
X161346000Y-78750000D01*
X168346000Y-78750000D02*
X168346000Y-85750000D01*
X168346000Y-78750000D02*
X162108000Y-78750000D01*
%TO.C,J4*%
X161346000Y-99942000D02*
X162108000Y-99942000D01*
X162108000Y-99942000D02*
X168346000Y-99942000D01*
X166846000Y-99942000D02*
X166846000Y-92942000D01*
X161346000Y-92942000D02*
X161346000Y-99942000D01*
X162108000Y-92942000D02*
X161346000Y-92942000D01*
X168346000Y-92942000D02*
X168346000Y-99942000D01*
X168346000Y-92942000D02*
X162108000Y-92942000D01*
%TO.C,J7*%
X161346000Y-78762000D02*
X162108000Y-78762000D01*
X162108000Y-78762000D02*
X168346000Y-78762000D01*
X166846000Y-78762000D02*
X166846000Y-71762000D01*
X161346000Y-71762000D02*
X161346000Y-78762000D01*
X162108000Y-71762000D02*
X161346000Y-71762000D01*
X168346000Y-71762000D02*
X168346000Y-78762000D01*
X168346000Y-71762000D02*
X162108000Y-71762000D01*
D13*
%TO.C,C3*%
X141506199Y-79577000D02*
X141906199Y-79577000D01*
X141706199Y-79377000D02*
X141706199Y-79777000D01*
X143776000Y-78692000D02*
X143776000Y-79932000D01*
X143776000Y-81612000D02*
X143776000Y-82852000D01*
X143816000Y-78692000D02*
X143816000Y-79932000D01*
X143816000Y-81612000D02*
X143816000Y-82852000D01*
X143856000Y-78693000D02*
X143856000Y-79932000D01*
X143856000Y-81612000D02*
X143856000Y-82851000D01*
X143896000Y-78695000D02*
X143896000Y-79932000D01*
X143896000Y-81612000D02*
X143896000Y-82849000D01*
X143936000Y-78698000D02*
X143936000Y-79932000D01*
X143936000Y-81612000D02*
X143936000Y-82846000D01*
X143976000Y-78701000D02*
X143976000Y-79932000D01*
X143976000Y-81612000D02*
X143976000Y-82843000D01*
X144016000Y-78705000D02*
X144016000Y-79932000D01*
X144016000Y-81612000D02*
X144016000Y-82839000D01*
X144056000Y-78710000D02*
X144056000Y-79932000D01*
X144056000Y-81612000D02*
X144056000Y-82834000D01*
X144096000Y-78716000D02*
X144096000Y-79932000D01*
X144096000Y-81612000D02*
X144096000Y-82828000D01*
X144136000Y-78722000D02*
X144136000Y-79932000D01*
X144136000Y-81612000D02*
X144136000Y-82822000D01*
X144176000Y-78730000D02*
X144176000Y-79932000D01*
X144176000Y-81612000D02*
X144176000Y-82814000D01*
X144216000Y-78738000D02*
X144216000Y-79932000D01*
X144216000Y-81612000D02*
X144216000Y-82806000D01*
X144256000Y-78747000D02*
X144256000Y-79932000D01*
X144256000Y-81612000D02*
X144256000Y-82797000D01*
X144296000Y-78756000D02*
X144296000Y-79932000D01*
X144296000Y-81612000D02*
X144296000Y-82788000D01*
X144336000Y-78767000D02*
X144336000Y-79932000D01*
X144336000Y-81612000D02*
X144336000Y-82777000D01*
X144376000Y-78778000D02*
X144376000Y-79932000D01*
X144376000Y-81612000D02*
X144376000Y-82766000D01*
X144416000Y-78790000D02*
X144416000Y-79932000D01*
X144416000Y-81612000D02*
X144416000Y-82754000D01*
X144456000Y-78804000D02*
X144456000Y-79932000D01*
X144456000Y-81612000D02*
X144456000Y-82740000D01*
X144497000Y-78818000D02*
X144497000Y-79932000D01*
X144497000Y-81612000D02*
X144497000Y-82726000D01*
X144537000Y-78832000D02*
X144537000Y-79932000D01*
X144537000Y-81612000D02*
X144537000Y-82712000D01*
X144577000Y-78848000D02*
X144577000Y-79932000D01*
X144577000Y-81612000D02*
X144577000Y-82696000D01*
X144617000Y-78865000D02*
X144617000Y-79932000D01*
X144617000Y-81612000D02*
X144617000Y-82679000D01*
X144657000Y-78883000D02*
X144657000Y-79932000D01*
X144657000Y-81612000D02*
X144657000Y-82661000D01*
X144697000Y-78902000D02*
X144697000Y-79932000D01*
X144697000Y-81612000D02*
X144697000Y-82642000D01*
X144737000Y-78921000D02*
X144737000Y-79932000D01*
X144737000Y-81612000D02*
X144737000Y-82623000D01*
X144777000Y-78942000D02*
X144777000Y-79932000D01*
X144777000Y-81612000D02*
X144777000Y-82602000D01*
X144817000Y-78964000D02*
X144817000Y-79932000D01*
X144817000Y-81612000D02*
X144817000Y-82580000D01*
X144857000Y-78987000D02*
X144857000Y-79932000D01*
X144857000Y-81612000D02*
X144857000Y-82557000D01*
X144897000Y-79012000D02*
X144897000Y-79932000D01*
X144897000Y-81612000D02*
X144897000Y-82532000D01*
X144937000Y-79037000D02*
X144937000Y-79932000D01*
X144937000Y-81612000D02*
X144937000Y-82507000D01*
X144977000Y-79064000D02*
X144977000Y-79932000D01*
X144977000Y-81612000D02*
X144977000Y-82480000D01*
X145017000Y-79092000D02*
X145017000Y-79932000D01*
X145017000Y-81612000D02*
X145017000Y-82452000D01*
X145057000Y-79122000D02*
X145057000Y-79932000D01*
X145057000Y-81612000D02*
X145057000Y-82422000D01*
X145097000Y-79153000D02*
X145097000Y-79932000D01*
X145097000Y-81612000D02*
X145097000Y-82391000D01*
X145137000Y-79185000D02*
X145137000Y-79932000D01*
X145137000Y-81612000D02*
X145137000Y-82359000D01*
X145177000Y-79220000D02*
X145177000Y-79932000D01*
X145177000Y-81612000D02*
X145177000Y-82324000D01*
X145217000Y-79256000D02*
X145217000Y-79932000D01*
X145217000Y-81612000D02*
X145217000Y-82288000D01*
X145257000Y-79294000D02*
X145257000Y-79932000D01*
X145257000Y-81612000D02*
X145257000Y-82250000D01*
X145297000Y-79334000D02*
X145297000Y-79932000D01*
X145297000Y-81612000D02*
X145297000Y-82210000D01*
X145337000Y-79376000D02*
X145337000Y-79932000D01*
X145337000Y-81612000D02*
X145337000Y-82168000D01*
X145377000Y-79421000D02*
X145377000Y-82123000D01*
X145417000Y-79468000D02*
X145417000Y-82076000D01*
X145457000Y-79518000D02*
X145457000Y-82026000D01*
X145497000Y-79572000D02*
X145497000Y-81972000D01*
X145537000Y-79630000D02*
X145537000Y-81914000D01*
X145577000Y-79692000D02*
X145577000Y-81852000D01*
X145617000Y-79759000D02*
X145617000Y-81785000D01*
X145657000Y-79832000D02*
X145657000Y-81712000D01*
X145697000Y-79913000D02*
X145697000Y-81631000D01*
X145737000Y-80004000D02*
X145737000Y-81540000D01*
X145777000Y-80108000D02*
X145777000Y-81436000D01*
X145817000Y-80235000D02*
X145817000Y-81309000D01*
X145857000Y-80402000D02*
X145857000Y-81142000D01*
X145896000Y-80772000D02*
G75*
G03*
X141656000Y-80772000I-2120000J0D01*
G01*
X141656000Y-80772000D02*
G75*
G03*
X145896000Y-80772000I2120000J0D01*
G01*
D12*
%TO.C,J5*%
X161346000Y-92830000D02*
X162108000Y-92830000D01*
X162108000Y-92830000D02*
X168346000Y-92830000D01*
X166846000Y-92830000D02*
X166846000Y-85830000D01*
X161346000Y-85830000D02*
X161346000Y-92830000D01*
X162108000Y-85830000D02*
X161346000Y-85830000D01*
X168346000Y-85830000D02*
X168346000Y-92830000D01*
X168346000Y-85830000D02*
X162108000Y-85830000D01*
D13*
%TO.C,SW1*%
X113138000Y-77446000D02*
X113138000Y-78946000D01*
X114388000Y-81446000D02*
X118888000Y-81446000D01*
X118888000Y-74946000D02*
X114388000Y-74946000D01*
X120138000Y-78946000D02*
X120138000Y-77446000D01*
%TO.C,C10*%
X160276000Y-95236420D02*
X160276000Y-95517580D01*
X159256000Y-95236420D02*
X159256000Y-95517580D01*
%TO.C,C2*%
X143610420Y-85342000D02*
X143891580Y-85342000D01*
X143610420Y-86362000D02*
X143891580Y-86362000D01*
%TO.C,C8*%
X119760420Y-91662000D02*
X120041580Y-91662000D01*
X119760420Y-92682000D02*
X120041580Y-92682000D01*
%TO.C,R2*%
X143843742Y-99299500D02*
X144318258Y-99299500D01*
X143843742Y-100344500D02*
X144318258Y-100344500D01*
D12*
%TO.C,J1*%
X161346000Y-116657000D02*
X162108000Y-116657000D01*
X162108000Y-116657000D02*
X168346000Y-116657000D01*
X166846000Y-116657000D02*
X166846000Y-109657000D01*
X161346000Y-109657000D02*
X161346000Y-116657000D01*
X162108000Y-109657000D02*
X161346000Y-109657000D01*
X168346000Y-109657000D02*
X168346000Y-116657000D01*
X168346000Y-109657000D02*
X162108000Y-109657000D01*
D13*
%TO.C,R5*%
X158703742Y-86599500D02*
X159178258Y-86599500D01*
X158703742Y-87644500D02*
X159178258Y-87644500D01*
%TO.C,U2*%
X152131200Y-94189600D02*
X146121200Y-94189600D01*
X149881200Y-87369600D02*
X146121200Y-87369600D01*
X146121200Y-94189600D02*
X146121200Y-92929600D01*
X146121200Y-87369600D02*
X146121200Y-88629600D01*
%TO.C,U1*%
X130921920Y-90800905D02*
X131240118Y-91119103D01*
X131240118Y-91119103D02*
X130327950Y-92031271D01*
X136027231Y-95906216D02*
X135709033Y-95588018D01*
X131240118Y-90482707D02*
X130921920Y-90800905D01*
X136345429Y-95588018D02*
X136027231Y-95906216D01*
X135709033Y-86013792D02*
X136027231Y-85695594D01*
X140814344Y-91119103D02*
X141132542Y-90800905D01*
X136027231Y-85695594D02*
X136345429Y-86013792D01*
X141132542Y-90800905D02*
X140814344Y-90482707D01*
%TO.C,R4*%
X124601500Y-82629742D02*
X124601500Y-83104258D01*
X123556500Y-82629742D02*
X123556500Y-83104258D01*
%TO.C,C5*%
X130328765Y-97829022D02*
X130129954Y-97630211D01*
X131050014Y-97107773D02*
X130851203Y-96908962D01*
%TO.C,R6*%
X159178258Y-93359500D02*
X158703742Y-93359500D01*
X159178258Y-92314500D02*
X158703742Y-92314500D01*
%TO.C,U3*%
X113761000Y-101797000D02*
X113761000Y-123247000D01*
X113761000Y-123247000D02*
X157511000Y-123247000D01*
X113766000Y-102052000D02*
X115066000Y-102052000D01*
X113766000Y-105207000D02*
X116896000Y-105212000D01*
X113766000Y-119832000D02*
X116896000Y-119832000D01*
X113766000Y-122992000D02*
X116896000Y-122992000D01*
X116896000Y-104902000D02*
X116896000Y-105212000D01*
X116896000Y-119832000D02*
X116896000Y-122992000D01*
X124065233Y-104636149D02*
X124065233Y-104797687D01*
X124066233Y-103269610D02*
X125716233Y-102978671D01*
X124066233Y-112621106D02*
X124066233Y-103269610D01*
X124066233Y-112621106D02*
X124143797Y-112698670D01*
X124143797Y-112698670D02*
X134148670Y-112698670D01*
X124347636Y-120190217D02*
X124797636Y-120190217D01*
X124347636Y-121940217D02*
X124347636Y-120190217D01*
X124797636Y-121940217D02*
X124347636Y-121940217D01*
X124797636Y-122215217D02*
X124797636Y-119915217D01*
X124897636Y-119815217D02*
X128497636Y-119815217D01*
X125326233Y-117328670D02*
X125326233Y-112698670D01*
X125326233Y-117328670D02*
X126166233Y-117328670D01*
X125716233Y-102978671D02*
X132576233Y-102978671D01*
X126166233Y-117328670D02*
X126166233Y-112698670D01*
X127026233Y-117328670D02*
X127026233Y-112698670D01*
X127026233Y-117328670D02*
X127866233Y-117328670D01*
X127727358Y-119915217D02*
X127727358Y-122215217D01*
X127866233Y-117328670D02*
X127866233Y-112698670D01*
X128497636Y-122315217D02*
X124897636Y-122315217D01*
X128597636Y-119915217D02*
X128597636Y-122215217D01*
X128597636Y-120190217D02*
X129047636Y-120190217D01*
X128598636Y-120426696D02*
X128598636Y-120332144D01*
X128726233Y-117328670D02*
X128726233Y-112698670D01*
X128726233Y-117328670D02*
X129566233Y-117328670D01*
X129047636Y-120190217D02*
X129047636Y-121940217D01*
X129047636Y-121940217D02*
X128597636Y-121940217D01*
X129566233Y-117328670D02*
X129566233Y-112698670D01*
X130426233Y-117328670D02*
X130426233Y-112698670D01*
X130426233Y-117328670D02*
X131266233Y-117328670D01*
X131266233Y-117328670D02*
X131266233Y-112698670D01*
X132126233Y-117328670D02*
X132126233Y-112698670D01*
X132126233Y-117328670D02*
X132966233Y-117328670D01*
X132576233Y-102978671D02*
X134226233Y-103269610D01*
X132966233Y-117328670D02*
X132966233Y-112698670D01*
X134148670Y-112698670D02*
X134226233Y-112621106D01*
X134226233Y-104058670D02*
X124066233Y-104058670D01*
X134226233Y-112621106D02*
X134226233Y-103269610D01*
X135783397Y-111217796D02*
X135783397Y-120917796D01*
X137283397Y-122417796D02*
X146983397Y-122417796D01*
X138615783Y-107214294D02*
X138615783Y-102314295D01*
X138665783Y-102264295D02*
X148565783Y-102264295D01*
X139652385Y-103582900D02*
X139676553Y-103614295D01*
X139664594Y-103639294D02*
X139640147Y-103634062D01*
X139664594Y-103639294D02*
X139671764Y-103608075D01*
X139664594Y-103639294D02*
X139676553Y-103614295D01*
X139676553Y-104114294D02*
X141755014Y-104114294D01*
X141755014Y-103614295D02*
X139676553Y-103614295D01*
X146983397Y-109717796D02*
X137283397Y-109717796D01*
X147174978Y-102263295D02*
X147130106Y-102263295D01*
X147258312Y-102263295D02*
X147224357Y-102263295D01*
X148483397Y-120917796D02*
X148483397Y-111217796D01*
X148565783Y-107264294D02*
X138665783Y-107264294D01*
X148615783Y-102314295D02*
X148615783Y-107214294D01*
X151964681Y-103332296D02*
X152764681Y-103332296D01*
X151964681Y-104612295D02*
X151964681Y-103012296D01*
X152764681Y-103012296D02*
X151964681Y-103012296D01*
X152764681Y-103012296D02*
X152764681Y-104612295D01*
X152764681Y-104292295D02*
X151964681Y-104292295D01*
X152764681Y-104612295D02*
X151964681Y-104612295D01*
X154376000Y-102052000D02*
X157491000Y-102052000D01*
X154376000Y-105212000D02*
X154376000Y-102052000D01*
X154376000Y-105212000D02*
X157536000Y-105212000D01*
X154376000Y-119832000D02*
X157491000Y-119832000D01*
X154376000Y-122992000D02*
X154376000Y-119832000D01*
X154376000Y-122992000D02*
X157491000Y-122992000D01*
X157511000Y-101797000D02*
X113761000Y-101797000D01*
X157511000Y-123247000D02*
X157511000Y-101797000D01*
X124897636Y-119815236D02*
G75*
G03*
X124797636Y-119915217I-36J-99964D01*
G01*
X124797583Y-122215217D02*
G75*
G03*
X124897636Y-122315217I100017J17D01*
G01*
X128597583Y-119915217D02*
G75*
G03*
X128497636Y-119815217I-99983J17D01*
G01*
X128497636Y-122315236D02*
G75*
G03*
X128597636Y-122215217I-36J100036D01*
G01*
X137283397Y-109717797D02*
G75*
G03*
X135783397Y-111217796I3J-1500003D01*
G01*
X137131249Y-113232200D02*
G75*
G03*
X137097131Y-113098010I-87049J49300D01*
G01*
X139163610Y-111031531D02*
G75*
G03*
X137097132Y-113098011I-1272850J-793629D01*
G01*
X137097118Y-119037559D02*
G75*
G03*
X137131216Y-118903409I-52918J84859D01*
G01*
X137131222Y-113232185D02*
G75*
G03*
X137131219Y-118903410I5002178J-2835615D01*
G01*
X135783404Y-120917796D02*
G75*
G03*
X137283397Y-122417796I1499996J-4D01*
G01*
X138665783Y-102264283D02*
G75*
G03*
X138615783Y-102314295I17J-50017D01*
G01*
X138615806Y-107214294D02*
G75*
G03*
X138665783Y-107264294I49994J-6D01*
G01*
X137097137Y-119037590D02*
G75*
G03*
X139163611Y-121104062I793663J-1272810D01*
G01*
X139297799Y-121069948D02*
G75*
G03*
X139163612Y-121104062I-49299J-87052D01*
G01*
X139163642Y-111031512D02*
G75*
G03*
X139297783Y-111065616I84858J52912D01*
G01*
X144969011Y-111065617D02*
G75*
G03*
X139297784Y-111065617I-2835613J-5002178D01*
G01*
X139652385Y-104145690D02*
G75*
G03*
X139640148Y-104094527I1063415J281390D01*
G01*
X139297783Y-121069976D02*
G75*
G03*
X144969011Y-121069976I2835614J5002180D01*
G01*
X145103161Y-121104076D02*
G75*
G03*
X144969011Y-121069977I-84861J-52924D01*
G01*
X144968998Y-111065641D02*
G75*
G03*
X145103183Y-111031531I49302J87041D01*
G01*
X147169667Y-113098018D02*
G75*
G03*
X145103183Y-111031531I-793667J1272818D01*
G01*
X148483404Y-111217796D02*
G75*
G03*
X146983397Y-109717796I-1500004J-4D01*
G01*
X147135579Y-118903412D02*
G75*
G03*
X147135576Y-113232183I-5002179J2835612D01*
G01*
X147169680Y-113098040D02*
G75*
G03*
X147135578Y-113232184I52920J-84860D01*
G01*
X145103182Y-121104062D02*
G75*
G03*
X147169662Y-119037582I1272858J793622D01*
G01*
X147135555Y-118903398D02*
G75*
G03*
X147169663Y-119037583I87045J-49302D01*
G01*
X146983397Y-122417797D02*
G75*
G03*
X148483397Y-120917796I3J1499997D01*
G01*
X148615805Y-102314295D02*
G75*
G03*
X148565783Y-102264295I-50005J-5D01*
G01*
X148565783Y-107264283D02*
G75*
G03*
X148615783Y-107214294I17J49983D01*
G01*
X121962666Y-112589418D02*
G75*
G03*
X113962666Y-112589418I-4000000J0D01*
G01*
X113962666Y-112589418D02*
G75*
G03*
X121962666Y-112589418I4000000J0D01*
G01*
X121994999Y-104267000D02*
G75*
G03*
X118797001Y-104267000I-1598999J0D01*
G01*
X118797001Y-104267000D02*
G75*
G03*
X121994999Y-104267000I1598999J0D01*
G01*
X125364179Y-111786594D02*
G75*
G03*
X124614179Y-111786594I-375000J0D01*
G01*
X124614179Y-111786594D02*
G75*
G03*
X125364179Y-111786594I375000J0D01*
G01*
X147383397Y-116067796D02*
G75*
G03*
X136883397Y-116067796I-5250000J0D01*
G01*
X136883397Y-116067796D02*
G75*
G03*
X147383397Y-116067796I5250000J0D01*
G01*
X152475000Y-120777000D02*
G75*
G03*
X149277000Y-120777000I-1599000J0D01*
G01*
X149277000Y-120777000D02*
G75*
G03*
X152475000Y-120777000I1599000J0D01*
G01*
X157345307Y-113087206D02*
G75*
G03*
X149345307Y-113087206I-4000000J0D01*
G01*
X149345307Y-113087206D02*
G75*
G03*
X157345307Y-113087206I4000000J0D01*
G01*
%TO.C,C6*%
X140977962Y-95028789D02*
X141176773Y-94829978D01*
X141699211Y-95750038D02*
X141898022Y-95551227D01*
%TO.C,R1*%
X140033742Y-99299500D02*
X140508258Y-99299500D01*
X140033742Y-100344500D02*
X140508258Y-100344500D01*
%TO.C,J9*%
X144236000Y-71357000D02*
X144236000Y-73857000D01*
X144236000Y-73857000D02*
X146736000Y-73857000D01*
X144536000Y-69537000D02*
X144536000Y-73557000D01*
X144536000Y-71247000D02*
X145036000Y-71247000D01*
X144536000Y-72057000D02*
X145536000Y-72057000D01*
X144536000Y-73557000D02*
X154756000Y-73557000D01*
X145036000Y-70037000D02*
X154256000Y-70037000D01*
X145036000Y-71247000D02*
X145036000Y-70037000D01*
X145536000Y-72057000D02*
X145536000Y-73557000D01*
X153756000Y-72057000D02*
X153756000Y-73557000D01*
X154256000Y-70037000D02*
X154256000Y-71247000D01*
X154256000Y-71247000D02*
X154756000Y-71247000D01*
X154756000Y-69537000D02*
X144536000Y-69537000D01*
X154756000Y-72057000D02*
X153756000Y-72057000D01*
X154756000Y-73557000D02*
X154756000Y-69537000D01*
%TO.C,C7*%
X119760420Y-89152000D02*
X120041580Y-89152000D01*
X119760420Y-90172000D02*
X120041580Y-90172000D01*
%TO.C,Q2*%
X158798500Y-83602000D02*
X160473500Y-83602000D01*
X158798500Y-83602000D02*
X158148500Y-83602000D01*
X158798500Y-80482000D02*
X159448500Y-80482000D01*
X158798500Y-80482000D02*
X158148500Y-80482000D01*
%TO.C,R3*%
X120188258Y-87009500D02*
X119713742Y-87009500D01*
X120188258Y-85964500D02*
X119713742Y-85964500D01*
%TO.C,C11*%
X118105801Y-99747000D02*
X117705801Y-99747000D01*
X117905801Y-99947000D02*
X117905801Y-99547000D01*
X115836000Y-100632000D02*
X115836000Y-99392000D01*
X115836000Y-97712000D02*
X115836000Y-96472000D01*
X115796000Y-100632000D02*
X115796000Y-99392000D01*
X115796000Y-97712000D02*
X115796000Y-96472000D01*
X115756000Y-100631000D02*
X115756000Y-99392000D01*
X115756000Y-97712000D02*
X115756000Y-96473000D01*
X115716000Y-100629000D02*
X115716000Y-99392000D01*
X115716000Y-97712000D02*
X115716000Y-96475000D01*
X115676000Y-100626000D02*
X115676000Y-99392000D01*
X115676000Y-97712000D02*
X115676000Y-96478000D01*
X115636000Y-100623000D02*
X115636000Y-99392000D01*
X115636000Y-97712000D02*
X115636000Y-96481000D01*
X115596000Y-100619000D02*
X115596000Y-99392000D01*
X115596000Y-97712000D02*
X115596000Y-96485000D01*
X115556000Y-100614000D02*
X115556000Y-99392000D01*
X115556000Y-97712000D02*
X115556000Y-96490000D01*
X115516000Y-100608000D02*
X115516000Y-99392000D01*
X115516000Y-97712000D02*
X115516000Y-96496000D01*
X115476000Y-100602000D02*
X115476000Y-99392000D01*
X115476000Y-97712000D02*
X115476000Y-96502000D01*
X115436000Y-100594000D02*
X115436000Y-99392000D01*
X115436000Y-97712000D02*
X115436000Y-96510000D01*
X115396000Y-100586000D02*
X115396000Y-99392000D01*
X115396000Y-97712000D02*
X115396000Y-96518000D01*
X115356000Y-100577000D02*
X115356000Y-99392000D01*
X115356000Y-97712000D02*
X115356000Y-96527000D01*
X115316000Y-100568000D02*
X115316000Y-99392000D01*
X115316000Y-97712000D02*
X115316000Y-96536000D01*
X115276000Y-100557000D02*
X115276000Y-99392000D01*
X115276000Y-97712000D02*
X115276000Y-96547000D01*
X115236000Y-100546000D02*
X115236000Y-99392000D01*
X115236000Y-97712000D02*
X115236000Y-96558000D01*
X115196000Y-100534000D02*
X115196000Y-99392000D01*
X115196000Y-97712000D02*
X115196000Y-96570000D01*
X115156000Y-100520000D02*
X115156000Y-99392000D01*
X115156000Y-97712000D02*
X115156000Y-96584000D01*
X115115000Y-100506000D02*
X115115000Y-99392000D01*
X115115000Y-97712000D02*
X115115000Y-96598000D01*
X115075000Y-100492000D02*
X115075000Y-99392000D01*
X115075000Y-97712000D02*
X115075000Y-96612000D01*
X115035000Y-100476000D02*
X115035000Y-99392000D01*
X115035000Y-97712000D02*
X115035000Y-96628000D01*
X114995000Y-100459000D02*
X114995000Y-99392000D01*
X114995000Y-97712000D02*
X114995000Y-96645000D01*
X114955000Y-100441000D02*
X114955000Y-99392000D01*
X114955000Y-97712000D02*
X114955000Y-96663000D01*
X114915000Y-100422000D02*
X114915000Y-99392000D01*
X114915000Y-97712000D02*
X114915000Y-96682000D01*
X114875000Y-100403000D02*
X114875000Y-99392000D01*
X114875000Y-97712000D02*
X114875000Y-96701000D01*
X114835000Y-100382000D02*
X114835000Y-99392000D01*
X114835000Y-97712000D02*
X114835000Y-96722000D01*
X114795000Y-100360000D02*
X114795000Y-99392000D01*
X114795000Y-97712000D02*
X114795000Y-96744000D01*
X114755000Y-100337000D02*
X114755000Y-99392000D01*
X114755000Y-97712000D02*
X114755000Y-96767000D01*
X114715000Y-100312000D02*
X114715000Y-99392000D01*
X114715000Y-97712000D02*
X114715000Y-96792000D01*
X114675000Y-100287000D02*
X114675000Y-99392000D01*
X114675000Y-97712000D02*
X114675000Y-96817000D01*
X114635000Y-100260000D02*
X114635000Y-99392000D01*
X114635000Y-97712000D02*
X114635000Y-96844000D01*
X114595000Y-100232000D02*
X114595000Y-99392000D01*
X114595000Y-97712000D02*
X114595000Y-96872000D01*
X114555000Y-100202000D02*
X114555000Y-99392000D01*
X114555000Y-97712000D02*
X114555000Y-96902000D01*
X114515000Y-100171000D02*
X114515000Y-99392000D01*
X114515000Y-97712000D02*
X114515000Y-96933000D01*
X114475000Y-100139000D02*
X114475000Y-99392000D01*
X114475000Y-97712000D02*
X114475000Y-96965000D01*
X114435000Y-100104000D02*
X114435000Y-99392000D01*
X114435000Y-97712000D02*
X114435000Y-97000000D01*
X114395000Y-100068000D02*
X114395000Y-99392000D01*
X114395000Y-97712000D02*
X114395000Y-97036000D01*
X114355000Y-100030000D02*
X114355000Y-99392000D01*
X114355000Y-97712000D02*
X114355000Y-97074000D01*
X114315000Y-99990000D02*
X114315000Y-99392000D01*
X114315000Y-97712000D02*
X114315000Y-97114000D01*
X114275000Y-99948000D02*
X114275000Y-99392000D01*
X114275000Y-97712000D02*
X114275000Y-97156000D01*
X114235000Y-99903000D02*
X114235000Y-97201000D01*
X114195000Y-99856000D02*
X114195000Y-97248000D01*
X114155000Y-99806000D02*
X114155000Y-97298000D01*
X114115000Y-99752000D02*
X114115000Y-97352000D01*
X114075000Y-99694000D02*
X114075000Y-97410000D01*
X114035000Y-99632000D02*
X114035000Y-97472000D01*
X113995000Y-99565000D02*
X113995000Y-97539000D01*
X113955000Y-99492000D02*
X113955000Y-97612000D01*
X113915000Y-99411000D02*
X113915000Y-97693000D01*
X113875000Y-99320000D02*
X113875000Y-97784000D01*
X113835000Y-99216000D02*
X113835000Y-97888000D01*
X113795000Y-99089000D02*
X113795000Y-98015000D01*
X113755000Y-98922000D02*
X113755000Y-98182000D01*
X117956000Y-98552000D02*
G75*
G03*
X113716000Y-98552000I-2120000J0D01*
G01*
X113716000Y-98552000D02*
G75*
G03*
X117956000Y-98552000I2120000J0D01*
G01*
%TO.C,Q3*%
X158798500Y-75347000D02*
X160473500Y-75347000D01*
X158798500Y-75347000D02*
X158148500Y-75347000D01*
X158798500Y-72227000D02*
X159448500Y-72227000D01*
X158798500Y-72227000D02*
X158148500Y-72227000D01*
%TO.C,J2*%
X122178000Y-78596000D02*
X122178000Y-81096000D01*
X122178000Y-81096000D02*
X124678000Y-81096000D01*
X122478000Y-76776000D02*
X122478000Y-80796000D01*
X122478000Y-78486000D02*
X122978000Y-78486000D01*
X122478000Y-79296000D02*
X123478000Y-79296000D01*
X122478000Y-80796000D02*
X135198000Y-80796000D01*
X122978000Y-77276000D02*
X134698000Y-77276000D01*
X122978000Y-78486000D02*
X122978000Y-77276000D01*
X123478000Y-79296000D02*
X123478000Y-80796000D01*
X134198000Y-79296000D02*
X134198000Y-80796000D01*
X134698000Y-77276000D02*
X134698000Y-78486000D01*
X134698000Y-78486000D02*
X135198000Y-78486000D01*
X135198000Y-76776000D02*
X122478000Y-76776000D01*
X135198000Y-79296000D02*
X134198000Y-79296000D01*
X135198000Y-80796000D02*
X135198000Y-76776000D01*
%TO.C,J3*%
X122138000Y-73516000D02*
X122138000Y-76016000D01*
X122138000Y-76016000D02*
X124638000Y-76016000D01*
X122438000Y-71696000D02*
X122438000Y-75716000D01*
X122438000Y-73406000D02*
X122938000Y-73406000D01*
X122438000Y-74216000D02*
X123438000Y-74216000D01*
X122438000Y-75716000D02*
X135158000Y-75716000D01*
X122938000Y-72196000D02*
X134658000Y-72196000D01*
X122938000Y-73406000D02*
X122938000Y-72196000D01*
X123438000Y-74216000D02*
X123438000Y-75716000D01*
X134158000Y-74216000D02*
X134158000Y-75716000D01*
X134658000Y-72196000D02*
X134658000Y-73406000D01*
X134658000Y-73406000D02*
X135158000Y-73406000D01*
X135158000Y-71696000D02*
X122438000Y-71696000D01*
X135158000Y-74216000D02*
X134158000Y-74216000D01*
X135158000Y-75716000D02*
X135158000Y-71696000D01*
%TO.C,J8*%
X146736000Y-79612000D02*
X146736000Y-82112000D01*
X146736000Y-82112000D02*
X149236000Y-82112000D01*
X147036000Y-77792000D02*
X147036000Y-81812000D01*
X147036000Y-79502000D02*
X147536000Y-79502000D01*
X147036000Y-80312000D02*
X148036000Y-80312000D01*
X147036000Y-81812000D02*
X154756000Y-81812000D01*
X147536000Y-78292000D02*
X154256000Y-78292000D01*
X147536000Y-79502000D02*
X147536000Y-78292000D01*
X148036000Y-80312000D02*
X148036000Y-81812000D01*
X153756000Y-80312000D02*
X153756000Y-81812000D01*
X154256000Y-78292000D02*
X154256000Y-79502000D01*
X154256000Y-79502000D02*
X154756000Y-79502000D01*
X154756000Y-77792000D02*
X147036000Y-77792000D01*
X154756000Y-80312000D02*
X153756000Y-80312000D01*
X154756000Y-81812000D02*
X154756000Y-77792000D01*
%TO.C,Q1*%
X158828500Y-91542000D02*
X160503500Y-91542000D01*
X158828500Y-91542000D02*
X158178500Y-91542000D01*
X158828500Y-88422000D02*
X159478500Y-88422000D01*
X158828500Y-88422000D02*
X158178500Y-88422000D01*
%TO.C,R9*%
X147493258Y-76849500D02*
X147018742Y-76849500D01*
X147493258Y-75804500D02*
X147018742Y-75804500D01*
%TO.C,Y1*%
X122344200Y-93254200D02*
X122344200Y-88254200D01*
X127744200Y-93254200D02*
X127744200Y-88254200D01*
X122344200Y-93254200D02*
G75*
G03*
X127744200Y-93254200I2700000J0D01*
G01*
X127744200Y-88254200D02*
G75*
G03*
X122344200Y-88254200I-2700000J0D01*
G01*
%TO.C,C1*%
X147981580Y-86362000D02*
X147700420Y-86362000D01*
X147981580Y-85342000D02*
X147700420Y-85342000D01*
%TO.C,C4*%
X131651773Y-96559022D02*
X131452962Y-96360211D01*
X132373022Y-95837773D02*
X132174211Y-95638962D01*
%TO.C,R8*%
X158703742Y-70724500D02*
X159178258Y-70724500D01*
X158703742Y-71769500D02*
X159178258Y-71769500D01*
%TO.C,C9*%
X121664000Y-82957580D02*
X121664000Y-82676420D01*
X122684000Y-82957580D02*
X122684000Y-82676420D01*
%TO.C,R7*%
X158703742Y-78979500D02*
X159178258Y-78979500D01*
X158703742Y-80024500D02*
X159178258Y-80024500D01*
%TD*%
M02*
